<svg width="30" height="30" viewBox="0 0 30 30" fill="none" xmlns="http://www.w3.org/2000/svg">
<path fill-rule="evenodd" clip-rule="evenodd" d="M0 15C0 6.71531 6.71531 0 15 0C23.2847 0 30 6.71625 30 15C30 23.2838 23.2847 30 15 30C6.71531 30 0 23.2838 0 15ZM14.9644 12.6197C14.9644 14.5022 13.3913 14.6222 13.3913 14.6222C15.4526 14.6222 15.2574 17.05 15.255 17.08L15.255 17.0803C15.255 20.2894 12.3956 20.1994 12.3956 20.1994H6.67783V9.80249L12.2663 9.81093C13.8975 9.81093 14.9644 10.7381 14.9644 12.6197ZM11.6166 11.3616H8.7572V13.9603H11.6166C11.6166 13.9603 12.5953 13.9603 12.5953 12.6459C12.5953 11.3775 11.6166 11.3616 11.6166 11.3616ZM8.7572 18.6394H11.8763C12.1003 18.6394 13.4353 18.6225 13.4353 17.0794C13.4353 15.5362 11.8763 15.5203 11.8763 15.5203H8.7572V18.6394ZM19.6734 12.4012C15.7678 12.4012 15.7744 16.3003 15.7744 16.3003C15.7744 16.3003 15.5147 20.1994 19.6734 20.1994C19.6734 20.1994 23.3119 20.1994 23.3119 17.0803H21.2325C21.2325 17.0803 21.2325 18.6394 19.6734 18.6394C19.6734 18.6394 18.1144 18.6394 18.1144 16.56H23.3128C23.3128 15.5203 23.3128 12.4012 19.6734 12.4012ZM18.1144 15.5203C18.1144 15.5203 18.0797 13.9612 19.6734 13.9612C21.2672 13.9612 21.2325 15.5203 21.2325 15.5203H18.1144ZM21.7528 10.8412H17.5941V11.8809H21.7528V10.8412Z" fill="url(#paint0_linear_1170_5)"/>
<defs>
<linearGradient id="paint0_linear_1170_5" x1="0" y1="15" x2="30" y2="15" gradientUnits="userSpaceOnUse">
<stop stop-color="#30281F"/>
<stop offset="1" stop-color="#48390D"/>
</linearGradient>
</defs>
</svg>
