<svg width="52" height="52" viewBox="0 0 52 52" fill="none" xmlns="http://www.w3.org/2000/svg">
<rect width="52" height="52" rx="4" fill="#FFEA74" fill-opacity="0.08"/>
<rect x="0.5" y="0.5" width="51" height="51" rx="3.5" stroke="#FBD50A" stroke-opacity="0.18"/>
<g clip-path="url(#clip0_1079_396)">
<path d="M45.5455 29.6545L41 18.4242C40.8606 18.0788 40.6 17.8121 40.2546 17.6667C39.9091 17.5273 39.5273 17.5333 39.1879 17.6849L35.6485 19.2606C35.0485 19.5152 34.7273 20.1697 34.8546 20.7939L33.9152 21.3212C33.6 21.503 33.2182 21.5697 32.8485 21.5212L26.3212 20.5576C25.1818 20.3939 24.0121 20.7697 23.1879 21.5636L22.7091 22.0242H19.0849C18.9212 22.0242 18.7576 21.9636 18.6364 21.8545L18.3152 21.5818C18.5394 21.0303 18.3879 20.3879 17.903 20.0061L15.1637 17.8424C14.8727 17.6121 14.5091 17.5091 14.1394 17.5636C13.7758 17.6121 13.4424 17.8121 13.2243 18.103L6.62426 27.0485C6.1879 27.6364 6.29093 28.4606 6.87275 28.9273L9.60608 31.0849C9.85456 31.2788 10.1455 31.3758 10.4485 31.3758C10.5091 31.3758 10.5758 31.3697 10.6364 31.3636C11 31.3152 11.3273 31.1212 11.5455 30.8182L11.5697 30.7879L11.9637 31.0849C12.194 31.2485 12.3273 31.5273 12.3273 31.8182V33.4485L11.3091 34.7576C10.4 35.9394 10.6061 37.6424 11.7818 38.5515C12.2606 38.9273 12.8424 39.1273 13.4424 39.1273C13.5515 39.1273 13.6667 39.1212 13.7758 39.1091C13.897 39.0909 14.0121 39.0606 14.1273 39.0303C14.1273 39.0667 14.1212 39.097 14.1212 39.1333C14.1212 39.9091 14.4727 40.6364 15.0788 41.1333C15.5515 41.5091 16.1212 41.697 16.6849 41.697C17.0364 41.697 17.3879 41.6182 17.7152 41.4788V41.5091C17.8 42.1455 18.1334 42.7091 18.6182 43.0667L18.7273 43.1515C19.1394 43.4545 19.6303 43.6182 20.1334 43.6182C20.2485 43.6182 20.3637 43.6121 20.4849 43.5939C20.7455 43.5576 20.9818 43.4667 21.2121 43.3515C21.3394 44 21.7091 44.5576 22.2606 44.9091L22.3394 44.9636C22.7333 45.2242 23.1879 45.3576 23.6485 45.3576C23.8182 45.3576 23.9818 45.3394 24.1515 45.303C24.7879 45.1697 25.3273 44.7939 25.6849 44.2485L25.7879 44.0909C26.2182 44.4182 26.7333 44.5879 27.2849 44.5879C27.9333 44.5879 28.5697 44.3212 29.0303 43.8667C29.5333 43.3636 29.8 42.6606 29.7515 41.9515C29.7515 41.9091 29.7455 41.8606 29.7394 41.8182C30.4485 41.9212 31.194 41.697 31.7333 41.1576C32.2182 40.6727 32.4667 39.9939 32.4121 39.3091C32.4061 39.2242 32.394 39.1394 32.3758 39.0545C33.1818 39.103 33.9758 38.7818 34.5212 38.1333C34.9879 37.5818 35.2061 36.8545 35.1152 36.1394C35.1091 36.0849 35.103 36.0364 35.0909 35.9818C35.8243 36.0606 36.5697 35.8061 37.1152 35.2727C37.7152 34.6727 37.9394 33.8242 37.7758 33.0242C37.8061 33.0182 37.8364 33.0242 37.8667 33.0182L39.8182 32.7455C40.0667 32.9697 40.4 33.097 40.7333 33.097C40.9212 33.097 41.1091 33.0606 41.2849 32.9758L44.8364 31.4061C45.503 31.1152 45.8182 30.3394 45.5455 29.6545ZM10.4909 30.3333C10.4 30.3455 10.3152 30.3212 10.2485 30.2667L7.52729 28.1152C7.39396 28.0061 7.36365 27.8121 7.46669 27.6727L14.0606 18.7091C14.1273 18.6182 14.2182 18.5939 14.2727 18.5879H14.3152C14.3697 18.5879 14.4424 18.6 14.5091 18.6545L17.2546 20.8182C17.3879 20.9212 17.4121 21.1152 17.3152 21.2424L17.2303 21.3576C17.2243 21.3636 17.2182 21.3697 17.2121 21.3758L13.4182 26.5152C13.4121 26.5212 13.4121 26.5212 13.4061 26.5273L12.6849 27.5091L11.0303 29.7515C11.0243 29.7576 11.0243 29.7636 11.0243 29.7636L10.697 30.2121C10.6364 30.297 10.5515 30.3273 10.4909 30.3333ZM13.6546 38.0727C13.2182 38.1273 12.7818 38.0061 12.4303 37.7333C11.7152 37.1758 11.5818 36.1273 12.1455 35.4L14.097 32.8849C14.4243 32.4606 14.9152 32.2424 15.4121 32.2424C15.7637 32.2424 16.1212 32.3576 16.4243 32.5879C16.8303 32.9091 17.0667 33.3879 17.0667 33.903C17.0667 34.2727 16.9455 34.6242 16.7152 34.9273L14.7637 37.4424C14.4849 37.7939 14.0909 38.0182 13.6546 38.0727ZM15.7394 40.3212C15.3758 40.0242 15.1697 39.5939 15.1697 39.1333C15.1697 38.8 15.2849 38.4727 15.5091 38.1879L17.4546 35.6788C17.703 35.3515 18.0667 35.1515 18.4727 35.103C18.5334 35.0909 18.594 35.0909 18.6485 35.0909C18.994 35.0909 19.3334 35.2121 19.6485 35.4667C20.303 35.9939 20.4061 36.9576 19.8788 37.6121L17.8849 40.097C17.3576 40.7394 16.394 40.8424 15.7394 40.3212ZM20.3273 42.5576C19.9758 42.6061 19.6303 42.5212 19.3818 42.3394L19.2788 42.2545C18.9879 42.0424 18.8061 41.7273 18.7576 41.3697C18.7091 41.0061 18.8121 40.6485 19.0364 40.3636L20.5152 38.5333C20.7697 38.2121 21.1576 38.0424 21.5455 38.0424C21.8182 38.0424 22.097 38.1273 22.3273 38.303C22.6606 38.5515 22.8546 38.9394 22.8546 39.3576C22.8546 39.6303 22.7758 39.8849 22.6243 40.103C22.6121 40.1152 22.6061 40.1333 22.594 40.1515C22.5879 40.1576 22.5879 40.1636 22.5818 40.1636L22.5576 40.2L21.1818 42.0424C20.9879 42.3273 20.6788 42.5091 20.3273 42.5576ZM25.497 42.6L24.8 43.6849C24.6 43.9939 24.2909 44.2061 23.9273 44.2848C23.5697 44.3576 23.2061 44.2909 22.9091 44.097L22.8303 44.0424C22.5091 43.8364 22.297 43.5152 22.2303 43.1455C22.1637 42.7758 22.2424 42.4061 22.4667 42.097C22.8303 41.6182 23.2424 41.0849 23.4061 40.8849C23.4364 40.8545 23.4667 40.8182 23.497 40.7939C23.503 40.7939 23.503 40.7879 23.503 40.7879C23.5091 40.7818 23.5212 40.7758 23.5273 40.7697C23.5576 40.7455 23.5818 40.7212 23.6303 40.6909C24.0849 40.4182 24.6546 40.4182 25.097 40.703C25.4849 40.9515 25.7212 41.3879 25.7212 41.8606C25.7152 42.1273 25.6424 42.3818 25.497 42.6ZM36.3758 34.5333C35.8788 35.0242 35.0727 35.0849 34.5152 34.6788L31.0303 32.103L29.6727 31.097C29.4424 30.9273 29.1152 30.9758 28.9394 31.2061C28.7697 31.4364 28.8182 31.7636 29.0485 31.9394L31.4243 33.697L33.4364 35.1879C33.7879 35.4485 34.0121 35.8303 34.0667 36.2667C34.1212 36.703 33.994 37.1273 33.7091 37.4667C33.1879 38.0849 32.2667 38.2 31.6061 37.7333L27.4303 34.7455C27.194 34.5758 26.8667 34.6303 26.703 34.8667C26.5333 35.103 26.5879 35.4303 26.8243 35.5939L30.8182 38.4485C31.1273 38.6727 31.3212 39.0182 31.3576 39.3939C31.3879 39.7758 31.2546 40.1455 30.9818 40.4182C30.5273 40.8788 29.794 40.9212 29.2788 40.5333L25.3394 37.4667C25.1091 37.2909 24.7818 37.3273 24.6061 37.5576C24.4303 37.7818 24.4667 38.1152 24.6909 38.2909L28.1334 40.9818C28.4606 41.2364 28.6667 41.6182 28.6909 42.0303C28.7212 42.4485 28.5697 42.8424 28.2727 43.1394C27.7879 43.6242 26.9697 43.6788 26.4243 43.2849C26.4243 43.2849 26.394 43.2485 26.3515 43.2061L26.3637 43.1879C26.6182 42.8 26.7515 42.3455 26.7515 41.8667C26.7515 41.0364 26.3394 40.2788 25.6485 39.8303C25.1212 39.4909 24.4909 39.3879 23.8909 39.497C23.8909 39.4545 23.897 39.4121 23.897 39.3697C23.897 38.6121 23.5515 37.9212 22.9515 37.4727C22.4303 37.0849 21.8061 36.9394 21.2121 37.0242C21.3334 36.1515 21.0121 35.2364 20.2546 34.6242C19.7152 34.1818 19.0303 33.9879 18.3394 34.0667C18.2485 34.0788 18.1637 34.103 18.0788 34.1212C18.0849 34.0485 18.097 33.9818 18.097 33.9091C18.097 33.0667 17.7212 32.2909 17.0546 31.7697C16.0546 30.9939 14.6788 31.0364 13.7212 31.7879C13.7212 31.7818 13.7212 31.7818 13.7273 31.7758C13.7152 31.7879 13.703 31.8 13.6909 31.8061C13.6303 31.8545 13.5697 31.9152 13.5152 31.9697C13.4667 32.0182 13.4121 32.0606 13.3637 32.1152V31.8242C13.3637 31.1939 13.0667 30.6061 12.5758 30.2485L12.1758 29.9515L12.9394 28.9152L13.903 27.6061L14.2061 27.2C14.2243 27.1818 14.2364 27.1636 14.2546 27.1455L17.7152 22.4485L17.9394 22.6364C18.2485 22.9091 18.6546 23.0606 19.0727 23.0606H21.6061L20.1515 24.4545C19.8121 24.7818 19.6243 25.2242 19.6243 25.697C19.6243 26.3758 20 26.9758 20.6121 27.2606C22.103 27.9758 23.8667 27.9394 25.3273 27.1697L25.9576 26.8424C26.5515 26.5273 27.2788 26.6 27.8061 27.0242L33.9576 31.9515C34.3152 32.2303 34.6909 32.4606 35.0788 32.6303C35.2061 32.6849 35.3455 32.7394 35.4667 32.7818C35.5758 32.8242 35.6909 32.8606 35.7879 32.8849C35.9212 32.9273 36.0546 32.9576 36.1697 32.9758C36.3273 33.0061 36.4788 33.0303 36.6061 33.0364C36.6667 33.0424 36.7212 33.0424 36.7818 33.0485C36.7576 33.0545 36.7394 33.0606 36.7152 33.0667C36.8849 33.5697 36.7637 34.1455 36.3758 34.5333ZM37.7212 31.9879C37.5212 32.0121 37.303 32.0242 37.0546 32.0182C36.9515 32.0182 36.8546 32.0121 36.7152 31.9939C36.594 31.9879 36.4849 31.9636 36.3515 31.9394C36.2667 31.9273 36.1818 31.9091 36.0727 31.8727C35.9879 31.8545 35.9091 31.8242 35.8303 31.7939C35.7212 31.7576 35.6061 31.7091 35.503 31.6667C35.2 31.5333 34.897 31.3515 34.6121 31.1273L28.7758 26.4485L28.4606 26.2C27.9637 25.8 27.3576 25.5939 26.7455 25.5939C26.3091 25.5939 25.8727 25.697 25.4788 25.9091L24.8485 26.2364C23.6788 26.8545 22.2667 26.8848 21.0727 26.3091C20.7879 26.1758 20.6849 25.903 20.6849 25.6909C20.6849 25.5636 20.7212 25.3697 20.8909 25.2061L23.9152 22.3091C24.5091 21.7394 25.3515 21.4667 26.1697 21.5879L32.703 22.5515C33.303 22.6364 33.9212 22.5212 34.4303 22.2303L35.2303 21.7818L36.5152 24.9576L39.2788 31.7697L37.7212 31.9879ZM44.4121 30.4606L40.8546 32.0303C40.7152 32.0909 40.5455 32.0424 40.4424 31.8667L36.6606 22.5273L36.1697 21.3273L35.8909 20.6364C35.8243 20.4788 35.897 20.297 36.0606 20.2242L39.6121 18.6485C39.6909 18.6121 39.7818 18.6121 39.8606 18.6424C39.9394 18.6727 40 18.7333 40.0303 18.8182L44.5758 30.0545C44.6364 30.2061 44.5637 30.3879 44.4121 30.4606Z" fill="url(#paint0_linear_1079_396)"/>
<path d="M26 19.1029C29.4364 19.1029 32.2303 16.309 32.2303 12.8726C32.2303 9.43623 29.4364 6.63623 26 6.63623C22.5637 6.63623 19.7637 9.43017 19.7637 12.8726C19.7697 16.309 22.5637 19.1029 26 19.1029ZM26 7.68472C28.8606 7.68472 31.1819 10.012 31.1819 12.8726C31.1819 15.7332 28.8546 18.0544 26 18.0544C23.1394 18.0544 20.8122 15.7271 20.8122 12.8726C20.8122 10.012 23.1394 7.68472 26 7.68472Z" fill="url(#paint1_linear_1079_396)"/>
<path d="M24.7273 14.7696C24.8243 14.8665 24.9576 14.9211 25.097 14.9211C25.2364 14.9211 25.3698 14.8665 25.4667 14.7696L28.5152 11.7211C28.7213 11.515 28.7213 11.1878 28.5152 10.9817C28.3092 10.7756 27.9819 10.7756 27.7758 10.9817L25.097 13.6605L24.2304 12.7938C24.0243 12.5878 23.697 12.5878 23.491 12.7938C23.2849 12.9999 23.2849 13.3271 23.491 13.5332L24.7273 14.7696Z" fill="url(#paint2_linear_1079_396)"/>
</g>
<defs>
<linearGradient id="paint0_linear_1079_396" x1="25.9994" y1="17.5493" x2="25.9994" y2="45.3576" gradientUnits="userSpaceOnUse">
<stop stop-color="#FBD50A"/>
<stop offset="1" stop-color="#FFB10A"/>
</linearGradient>
<linearGradient id="paint1_linear_1079_396" x1="25.997" y1="6.63623" x2="25.997" y2="19.1029" gradientUnits="userSpaceOnUse">
<stop stop-color="#FBD50A"/>
<stop offset="1" stop-color="#FFB10A"/>
</linearGradient>
<linearGradient id="paint2_linear_1079_396" x1="26.0031" y1="10.8271" x2="26.0031" y2="14.9211" gradientUnits="userSpaceOnUse">
<stop stop-color="#FBD50A"/>
<stop offset="1" stop-color="#FFB10A"/>
</linearGradient>
<clipPath id="clip0_1079_396">
<rect width="40" height="40" fill="white" transform="translate(6 6)"/>
</clipPath>
</defs>
</svg>
