<svg width="15" height="11" viewBox="0 0 15 11" fill="none" xmlns="http://www.w3.org/2000/svg">
<path d="M14.8253 4.07694C14.5641 3.77569 14.1055 3.74126 13.8007 3.99948L7.50171 9.33594L1.19986 3.99948C0.895075 3.74126 0.436442 3.77569 0.175195 4.07694C-0.0860513 4.37819 -0.0512186 4.83151 0.253569 5.08972L7.02566 10.8279C7.29852 11.0574 7.6991 11.0574 7.96906 10.8279L14.7412 5.08972C15.0517 4.83151 15.0866 4.37819 14.8253 4.07694ZM0.256472 1.26239L7.02857 7.00052C7.30142 7.23005 7.702 7.23005 7.97196 7.00052L14.7441 1.26239C14.9734 1.06729 15.0575 0.751695 14.9531 0.467658C14.8486 0.18362 14.5757 0 14.2709 0H0.729619C0.424831 0 0.154876 0.186489 0.0503774 0.467658C-0.057024 0.751695 0.0271552 1.06729 0.256472 1.26239Z" fill="#0E0C01"/>
</svg>
