<svg width="30" height="30" viewBox="0 0 30 30" fill="none" xmlns="http://www.w3.org/2000/svg">
<path d="M15.4453 17.6416C16.838 20.117 18.3268 22.1339 18.4331 22.2783C20.6771 21.2179 22.3514 19.1509 22.8746 16.6585C22.6626 16.6549 19.3092 16.615 15.4453 17.6416Z" fill="url(#paint0_linear_983_102)"/>
<path d="M16.9285 22.8136C16.9366 22.81 16.9447 22.8082 16.9528 22.8063C16.9383 22.8094 16.9296 22.8118 16.9296 22.8118L16.9285 22.8136Z" fill="url(#paint1_linear_983_102)"/>
<path d="M9.68542 21.039C11.1035 22.2873 12.962 23.0462 15 23.0462C15.6538 23.0462 16.2882 22.9664 16.8966 22.8196C16.7758 22.6601 15.2646 20.6523 13.8883 18.1243C10.8515 19.2639 9.70475 21.0076 9.68542 21.039Z" fill="url(#paint2_linear_983_102)"/>
<path d="M13.6297 13.6829C18.3811 12.0273 19.9297 8.68789 19.9436 8.65889C18.5793 7.59307 16.8652 6.952 15 6.952C13.8846 6.952 12.8236 7.18039 11.8581 7.59125C11.9772 8.29455 12.446 10.7585 13.5777 13.6998C13.5952 13.6949 13.6127 13.6895 13.6297 13.6829Z" fill="url(#paint3_linear_983_102)"/>
<path d="M14.4429 14.9371C14.3377 14.9716 14.2314 15.0036 14.1269 15.0332C14.3275 15.4918 14.548 15.9498 14.7794 16.4017C18.9218 15.1613 22.8987 15.2525 23.0401 15.255C23.0431 15.1704 23.0468 15.087 23.0468 15.0012C23.0468 12.9336 22.2667 11.0491 20.9858 9.62316L20.9888 9.62799C20.9882 9.62557 18.7859 13.5336 14.4429 14.9371Z" fill="url(#paint4_linear_983_102)"/>
<path d="M15 30C23.271 30 30 23.271 30 15C30 6.72964 23.271 0 15 0C6.72964 0 0 6.72964 0 15C0 23.271 6.72843 30 15 30ZM5.76895 13.101C5.89221 12.4956 6.07831 11.9004 6.31757 11.3301C6.55503 10.7718 6.84625 10.2334 7.18642 9.72952C7.52357 9.23165 7.91086 8.76158 8.33501 8.33501C8.76098 7.90965 9.22924 7.52296 9.72952 7.18642C10.2334 6.84625 10.773 6.55382 11.3301 6.31757C11.8986 6.0777 12.4956 5.89221 13.101 5.76774C13.7209 5.64026 14.3601 5.57742 14.9988 5.57742C15.638 5.57742 16.2755 5.64026 16.8966 5.76774C17.502 5.89221 18.0984 6.0777 18.6675 6.31757C19.2264 6.55442 19.7648 6.84565 20.2687 7.18642C20.7671 7.52477 21.2366 7.90965 21.662 8.33501C22.0885 8.76158 22.4752 9.22924 22.8118 9.72952C23.1519 10.2334 23.4444 10.7736 23.6806 11.3301C23.9205 11.8986 24.1066 12.4956 24.2304 13.101C24.3573 13.7203 24.4214 14.3601 24.4214 15.0006C24.4214 15.6392 24.3573 16.2773 24.2304 16.8972C24.1066 17.5026 23.9211 18.0984 23.68 18.6687C23.4438 19.2276 23.1519 19.7654 22.8124 20.2681C22.4746 20.7665 22.0885 21.2366 21.6626 21.662C21.2366 22.0885 20.7683 22.4752 20.2687 22.8124C19.7648 23.1525 19.2258 23.4444 18.6681 23.6812C18.099 23.9205 17.502 24.1072 16.8972 24.2298C16.2761 24.3573 15.638 24.422 14.9994 24.422C14.3601 24.422 13.7221 24.3573 13.101 24.2298C12.4956 24.1072 11.9004 23.9211 11.3301 23.6812C10.7706 23.4444 10.2334 23.1538 9.72952 22.8124C9.23165 22.4746 8.76098 22.0879 8.33501 21.662C7.90965 21.236 7.52236 20.7671 7.18642 20.2681C6.84625 19.7648 6.55382 19.2264 6.31757 18.6687C6.07831 18.099 5.89161 17.5026 5.76835 16.8972C5.64086 16.2779 5.57803 15.6392 5.57803 15.0006C5.57803 14.3601 5.64207 13.7227 5.76895 13.101Z" fill="url(#paint5_linear_983_102)"/>
<path d="M12.0696 14.0731C11.0134 11.1729 10.585 8.81111 10.5035 8.32473C8.6957 9.54582 7.41297 11.4799 7.05407 13.7221C7.22083 13.7771 9.4721 14.4876 12.0696 14.0731Z" fill="url(#paint6_linear_983_102)"/>
<path d="M13.2701 16.9268C13.0816 16.5431 12.9028 16.1534 12.7342 15.7595C12.6738 15.6205 12.6182 15.4815 12.5608 15.3438C9.79596 15.6906 7.0722 15.1045 6.9574 15.0797C6.97432 16.9896 7.65828 18.7406 8.78573 20.1104C8.79963 20.0892 10.0908 18.2234 13.2701 16.9268Z" fill="url(#paint7_linear_983_102)"/>
<defs>
<linearGradient id="paint0_linear_983_102" x1="22.8746" y1="19.4679" x2="15.4453" y2="19.4679" gradientUnits="userSpaceOnUse">
<stop stop-color="#30281F"/>
<stop offset="1" stop-color="#48390D"/>
</linearGradient>
<linearGradient id="paint1_linear_983_102" x1="16.9528" y1="22.81" x2="16.9285" y2="22.81" gradientUnits="userSpaceOnUse">
<stop stop-color="#30281F"/>
<stop offset="1" stop-color="#48390D"/>
</linearGradient>
<linearGradient id="paint2_linear_983_102" x1="16.8966" y1="20.5853" x2="9.68542" y2="20.5853" gradientUnits="userSpaceOnUse">
<stop stop-color="#30281F"/>
<stop offset="1" stop-color="#48390D"/>
</linearGradient>
<linearGradient id="paint3_linear_983_102" x1="19.9436" y1="10.3259" x2="11.8581" y2="10.3259" gradientUnits="userSpaceOnUse">
<stop stop-color="#30281F"/>
<stop offset="1" stop-color="#48390D"/>
</linearGradient>
<linearGradient id="paint4_linear_983_102" x1="23.0468" y1="13.0124" x2="14.1269" y2="13.0124" gradientUnits="userSpaceOnUse">
<stop stop-color="#30281F"/>
<stop offset="1" stop-color="#48390D"/>
</linearGradient>
<linearGradient id="paint5_linear_983_102" x1="30" y1="15" x2="1.90735e-06" y2="15" gradientUnits="userSpaceOnUse">
<stop stop-color="#30281F"/>
<stop offset="1" stop-color="#48390D"/>
</linearGradient>
<linearGradient id="paint6_linear_983_102" x1="12.0696" y1="11.2635" x2="7.05407" y2="11.2635" gradientUnits="userSpaceOnUse">
<stop stop-color="#30281F"/>
<stop offset="1" stop-color="#48390D"/>
</linearGradient>
<linearGradient id="paint7_linear_983_102" x1="13.2701" y1="17.595" x2="6.9574" y2="17.595" gradientUnits="userSpaceOnUse">
<stop stop-color="#30281F"/>
<stop offset="1" stop-color="#48390D"/>
</linearGradient>
</defs>
</svg>
