<svg width="52" height="52" viewBox="0 0 52 52" fill="none" xmlns="http://www.w3.org/2000/svg">
<rect width="52" height="52" rx="4" fill="#FFEA74" fill-opacity="0.08"/>
<rect x="0.5" y="0.5" width="51" height="51" rx="3.5" stroke="#FBD50A" stroke-opacity="0.18"/>
<g clip-path="url(#clip0_1079_406)">
<path d="M42.8876 9.01499C42.871 8.78188 42.7755 8.56345 42.62 8.39442C42.3327 8.02565 41.8192 7.89053 41.3784 8.09641L41.3578 8.10603C41.3428 8.11297 41.3279 8.12044 41.3132 8.12819L15.8117 20.6283C15.4878 20.787 15.2712 21.1042 15.241 21.4636C15.2111 21.823 15.3721 22.1718 15.6651 22.3822L22.751 27.4667L8.51751 41.2376C8.14875 41.5944 8.10042 42.169 8.40456 42.5821C8.60376 42.8532 8.91405 43 9.23102 43C9.39791 43 9.56667 42.9592 9.72181 42.8745L36.6098 28.1941C36.9192 28.0253 37.12 27.7092 37.1417 27.3572C37.1633 27.005 37.0026 26.6667 36.716 26.4611L30.1503 21.7499L42.5746 9.82783C42.7947 9.61687 42.9092 9.31887 42.8876 9.01499ZM27.8405 21.124C27.6208 21.3349 27.5059 21.6326 27.5276 21.9365C27.5495 22.2407 27.7051 22.5192 27.9527 22.6968L34.195 27.1762L15.3866 37.445L25.0594 28.0865C25.2778 27.875 25.3913 27.5778 25.3692 27.2744C25.3467 26.9713 25.1913 26.6936 24.9443 26.5166L18.2534 21.7152L36.5921 12.7262L27.8405 21.124Z" fill="url(#paint0_linear_1079_406)"/>
</g>
<defs>
<linearGradient id="paint0_linear_1079_406" x1="25.5476" y1="8" x2="25.5476" y2="43" gradientUnits="userSpaceOnUse">
<stop stop-color="#FBD50A"/>
<stop offset="1" stop-color="#FFB10A"/>
</linearGradient>
<clipPath id="clip0_1079_406">
<rect width="35" height="35" fill="white" transform="translate(8 8)"/>
</clipPath>
</defs>
</svg>
