<svg width="16" height="17" viewBox="0 0 16 17" fill="none" xmlns="http://www.w3.org/2000/svg">
<path d="M15.7919 0.845751C15.7855 0.814658 15.7703 0.78604 15.7482 0.76325C15.7261 0.74046 15.698 0.724444 15.6671 0.717079C13.608 0.213642 8.85031 2.00767 6.27265 4.58427C5.81291 5.0403 5.39378 5.53553 5.02004 6.06434C4.22515 5.99403 3.43027 6.05274 2.75281 6.34806C0.841364 7.18935 0.284841 9.3845 0.129802 10.3288C0.121008 10.3805 0.124325 10.4335 0.139492 10.4837C0.154659 10.5339 0.181264 10.5799 0.217212 10.618C0.25316 10.6562 0.297472 10.6855 0.346663 10.7036C0.395854 10.7218 0.448582 10.7282 0.5007 10.7225L3.57019 10.384C3.57238 10.6154 3.58635 10.8466 3.61203 11.0766C3.62747 11.2363 3.69838 11.3856 3.81242 11.4984L5.00105 12.6843C5.11404 12.7982 5.26325 12.869 5.42293 12.8847C5.65164 12.9102 5.88151 12.9242 6.11164 12.9265L5.77484 15.9921C5.76922 16.0442 5.77575 16.0969 5.79391 16.1461C5.81208 16.1952 5.84138 16.2395 5.87952 16.2754C5.91767 16.3114 5.96362 16.338 6.01377 16.3532C6.06393 16.3684 6.11692 16.3717 6.16859 16.363C7.11113 16.2118 9.31015 15.6553 10.1465 13.7439C10.4418 13.0664 10.5023 12.2754 10.4341 11.4844C10.9642 11.1106 11.4607 10.6914 11.918 10.2314C14.5038 7.65868 16.2876 3.00716 15.7919 0.845751ZM9.33828 7.16227C9.10217 6.92632 8.94134 6.62564 8.87614 6.29826C8.81093 5.97089 8.84429 5.63153 8.97198 5.32312C9.09967 5.0147 9.31596 4.75109 9.59349 4.56561C9.87102 4.38014 10.1973 4.28114 10.5311 4.28114C10.8649 4.28114 11.1912 4.38014 11.4688 4.56561C11.7463 4.75109 11.9626 5.0147 12.0903 5.32312C12.218 5.63153 12.2513 5.97089 12.1861 6.29826C12.1209 6.62564 11.9601 6.92632 11.724 7.16227C11.5674 7.31907 11.3815 7.44345 11.1768 7.52832C10.9721 7.61319 10.7527 7.65687 10.5311 7.65687C10.3096 7.65687 10.0901 7.61319 9.88547 7.52832C9.68079 7.44345 9.49485 7.31907 9.33828 7.16227Z" fill="#1E1E1A"/>
<path d="M4.92031 13.5431C4.72766 13.7361 4.41863 13.8114 4.04668 13.8757C3.21102 14.0181 2.47309 13.296 2.6232 12.4512C2.68051 12.1309 2.84996 11.682 2.95543 11.5765C2.97848 11.5539 2.99383 11.5246 2.99928 11.4928C3.00474 11.4609 3.00003 11.4282 2.98582 11.3992C2.97162 11.3702 2.94864 11.3464 2.92015 11.3312C2.89166 11.316 2.8591 11.3102 2.82711 11.3146C2.3598 11.3718 1.92505 11.5836 1.59207 11.9165C0.765547 12.7437 0.6875 15.8132 0.6875 15.8132C0.6875 15.8132 3.75875 15.7351 4.58527 14.9079C4.91914 14.5752 5.13127 14.1398 5.1875 13.6718C5.20051 13.5249 5.02156 13.4373 4.92031 13.5431Z" fill="#1E1E1A"/>
</svg>
