<svg width="18" height="17" viewBox="0 0 18 17" fill="none" xmlns="http://www.w3.org/2000/svg">
<g id="lets-icons:message-alt-fill">
<path id="Vector" fill-rule="evenodd" clip-rule="evenodd" d="M0.325792 6.00147C0.313477 6.47504 0.313477 7.01088 0.313477 7.62302V9.37698C0.313477 11.8571 0.313477 13.098 1.14621 13.868C1.978 14.6389 3.31853 14.6389 5.99769 14.6389H11.6819C14.3611 14.6389 15.7016 14.6389 16.5334 13.868C17.3661 13.098 17.3661 11.8571 17.3661 9.37698V7.62302C17.3661 7.01088 17.3661 6.47417 17.3538 6.00147L9.75969 9.90668C9.47827 10.0514 9.16169 10.1273 8.83979 10.1273C8.5179 10.1273 8.20131 10.0514 7.9199 9.90668L0.325792 6.00147ZM0.543687 4.14139C0.622634 4.15893 0.699371 4.18699 0.773898 4.22558L8.83979 8.37371L16.9057 4.22558C16.9808 4.18758 17.0576 4.15951 17.1359 4.14139C17.0127 3.7257 16.8233 3.40034 16.5334 3.13198C15.7016 2.36111 14.3611 2.36111 11.6819 2.36111H5.99769C3.31853 2.36111 1.978 2.36111 1.14621 3.13198C0.855371 3.40034 0.666845 3.7257 0.543687 4.14051" fill="#191812"/>
</g>
</svg>
