<svg width="52" height="52" viewBox="0 0 52 52" fill="none" xmlns="http://www.w3.org/2000/svg">
<rect width="52" height="52" rx="4" fill="#FFEA74" fill-opacity="0.08"/>
<rect x="0.5" y="0.5" width="51" height="51" rx="3.5" stroke="#FBD50A" stroke-opacity="0.18"/>
<path d="M22.2501 40.3751C22.0923 40.3756 21.9402 40.3164 21.8243 40.2094C21.7084 40.1024 21.6372 39.9555 21.6251 39.7982C21.5844 39.2745 20.4963 26.9464 7.73755 24.1107C7.59885 24.0798 7.47484 24.0025 7.38596 23.8916C7.29709 23.7807 7.24866 23.6428 7.24866 23.5007C7.24866 23.3586 7.29709 23.2207 7.38596 23.1099C7.47484 22.999 7.59885 22.9217 7.73755 22.8907C20.5001 20.0545 21.5863 7.72635 21.6251 7.2026C21.6372 7.04569 21.7082 6.89915 21.8237 6.79225C21.9392 6.68535 22.0908 6.62598 22.2482 6.62598C22.4056 6.62598 22.5572 6.68535 22.6727 6.79225C22.7882 6.89915 22.8591 7.04569 22.8713 7.2026C22.9119 7.72635 24 20.0545 36.7588 22.8901C36.8975 22.921 37.0215 22.9983 37.1104 23.1092C37.1993 23.2201 37.2477 23.358 37.2477 23.5001C37.2477 23.6422 37.1993 23.7801 37.1104 23.891C37.0215 24.0019 36.8975 24.0792 36.7588 24.1101C24 26.9457 22.9138 39.2739 22.8751 39.7976C22.8631 39.955 22.7919 40.102 22.676 40.2091C22.5601 40.3163 22.4079 40.3756 22.2501 40.3751ZM10.2051 23.5001C18.1426 26.1814 21.1426 32.7051 22.2501 36.6082C23.3576 32.7051 26.3594 26.1814 34.295 23.5001C26.3594 20.8189 23.3576 14.2951 22.2501 10.392C21.1426 14.2951 18.1407 20.8189 10.2051 23.5001Z" fill="url(#paint0_linear_1079_373)"/>
<path d="M36.0001 45.375C35.8424 45.3755 35.6904 45.3164 35.5745 45.2095C35.4586 45.1026 35.3873 44.9559 35.3751 44.7988C35.1477 42.7967 34.2835 40.9205 32.9097 39.4465C31.5359 37.9725 29.725 36.9786 27.7438 36.6113C27.6032 36.582 27.4769 36.5051 27.3863 36.3937C27.2957 36.2823 27.2462 36.143 27.2462 35.9994C27.2462 35.8557 27.2957 35.7165 27.3863 35.605C27.4769 35.4936 27.6032 35.4168 27.7438 35.3875C29.725 35.0201 31.5359 34.0263 32.9097 32.5523C34.2835 31.0783 35.1477 29.2021 35.3751 27.2C35.3876 27.0431 35.459 26.8966 35.5749 26.79C35.6908 26.6834 35.8426 26.6245 36.0001 26.625C36.1571 26.6253 36.3082 26.6847 36.4234 26.7913C36.5387 26.898 36.6095 27.0441 36.6219 27.2006C36.8492 29.2027 37.7134 31.0789 39.0873 32.5529C40.4611 34.0269 42.272 35.0208 44.2532 35.3881C44.3938 35.4174 44.52 35.4942 44.6107 35.6057C44.7013 35.7171 44.7508 35.8564 44.7508 36C44.7508 36.1436 44.7013 36.2829 44.6107 36.3943C44.52 36.5058 44.3938 36.5826 44.2532 36.6119C42.2725 36.9799 40.4622 37.9741 39.089 39.4482C37.7157 40.9222 36.8521 42.7982 36.6251 44.8C36.6125 44.957 36.5411 45.1034 36.4252 45.21C36.3093 45.3166 36.1575 45.3755 36.0001 45.375ZM30.0369 36C31.4152 36.5505 32.6601 37.3889 33.6884 38.459C34.7168 39.5292 35.5049 40.8065 36.0001 42.2056C36.4952 40.8065 37.2833 39.5292 38.3117 38.459C39.34 37.3889 40.5849 36.5505 41.9632 36C40.5849 35.4495 39.34 34.6111 38.3117 33.541C37.2833 32.4708 36.4952 31.1935 36.0001 29.7944C35.5049 31.1935 34.7168 32.4708 33.6884 33.541C32.6601 34.6111 31.4152 35.4495 30.0369 36Z" fill="url(#paint1_linear_1079_373)"/>
<defs>
<linearGradient id="paint0_linear_1079_373" x1="22.2482" y1="6.62598" x2="22.2482" y2="40.3751" gradientUnits="userSpaceOnUse">
<stop stop-color="#FBD50A"/>
<stop offset="1" stop-color="#FFB10A"/>
</linearGradient>
<linearGradient id="paint1_linear_1079_373" x1="35.9985" y1="26.625" x2="35.9985" y2="45.375" gradientUnits="userSpaceOnUse">
<stop stop-color="#FBD50A"/>
<stop offset="1" stop-color="#FFB10A"/>
</linearGradient>
</defs>
</svg>
