<svg width="52" height="52" viewBox="0 0 52 52" fill="none" xmlns="http://www.w3.org/2000/svg">
<rect width="52" height="52" rx="4" fill="#FFEA74" fill-opacity="0.08"/>
<rect x="0.5" y="0.5" width="51" height="51" rx="3.5" stroke="#FBD50A" stroke-opacity="0.18"/>
<path d="M14.594 28.0557H9.27878C8.46786 28.0557 7.80005 28.7167 7.80005 29.5344V39.6674C7.80005 40.0354 8.09307 40.3284 8.46105 40.3284H15.4118C15.7797 40.3284 16.0728 40.0354 16.0728 39.6674V29.5344C16.0728 28.7235 15.4118 28.0557 14.594 28.0557ZM14.7508 38.9996H9.12205V29.5276C9.12205 29.4458 9.19019 29.3708 9.27878 29.3708H14.6008C14.6826 29.3708 14.7576 29.439 14.7576 29.5276V38.9996H14.7508Z" fill="url(#paint0_linear_1079_386)"/>
<path d="M24.366 19.749H19.0439C18.233 19.749 17.5652 20.41 17.5652 21.2278V39.6607C17.5652 40.0287 17.8582 40.3217 18.2262 40.3217H25.1769C25.5449 40.3217 25.8379 40.0287 25.8379 39.6607V21.2278C25.8379 20.4168 25.1769 19.749 24.3592 19.749H24.366ZM24.5227 38.9998H18.894V21.2278C18.894 21.146 18.9621 21.071 19.0507 21.071H24.3728C24.4546 21.071 24.5295 21.1392 24.5295 21.2278V38.9998H24.5227Z" fill="url(#paint1_linear_1079_386)"/>
<path d="M33.9469 24.5942H28.6248C27.8139 24.5942 27.1461 25.2552 27.1461 26.073V39.6609C27.1461 40.0289 27.4391 40.3219 27.8071 40.3219H34.7578C35.1258 40.3219 35.4188 40.0289 35.4188 39.6609V26.073C35.4188 25.2621 34.7578 24.5942 33.9401 24.5942H33.9469ZM34.1036 38.9999H28.4749V26.073C28.4749 25.9912 28.5431 25.9162 28.6317 25.9162H33.9537C34.0355 25.9162 34.1105 25.9844 34.1105 26.073V38.9999H34.1036Z" fill="url(#paint2_linear_1079_386)"/>
<path d="M43.5281 19.749H38.206C37.3951 19.749 36.7273 20.41 36.7273 21.2278V39.6607C36.7273 40.0287 37.0203 40.3217 37.3883 40.3217H44.339C44.707 40.3217 45 40.0287 45 39.6607V21.2278C45 20.4168 44.339 19.749 43.5213 19.749H43.5281ZM43.6848 38.9998H38.0561V21.2278C38.0561 21.146 38.1243 21.071 38.2128 21.071H43.5349C43.6167 21.071 43.6916 21.1392 43.6916 21.2278V38.9998H43.6848Z" fill="url(#paint3_linear_1079_386)"/>
<path d="M8.46102 26.7406C8.61775 26.7406 8.7813 26.6861 8.91077 26.5634L21.7287 14.7813L30.8668 22.5293C31.1053 22.7269 31.4461 22.7405 31.6914 22.5497L43.5621 13.5956V16.5326C43.5621 16.9006 43.8551 17.1936 44.2231 17.1936C44.5911 17.1936 44.8841 16.9006 44.8841 16.5326V12.2804C44.8841 12.0964 44.8091 11.926 44.6796 11.7966C44.5502 11.6739 44.3662 11.6058 44.189 11.6194L39.7801 11.8715C39.4189 11.892 39.1395 12.2054 39.16 12.5666C39.1804 12.9278 39.4939 13.2072 39.855 13.1867L42.0697 13.0572L31.3234 21.1664L22.1444 13.3843C21.8922 13.1663 21.5106 13.1731 21.2721 13.4048L8.01809 25.5958C7.75232 25.8411 7.73188 26.2636 7.9772 26.5293C8.10667 26.6724 8.28385 26.7406 8.46102 26.7406Z" fill="url(#paint4_linear_1079_386)"/>
<defs>
<linearGradient id="paint0_linear_1079_386" x1="10.0388" y1="28.6704" x2="19.7779" y2="34.394" gradientUnits="userSpaceOnUse">
<stop stop-color="#FFB10A"/>
<stop offset="1" stop-color="#FBD50A"/>
</linearGradient>
<linearGradient id="paint1_linear_1079_386" x1="19.8039" y1="20.7795" x2="31.4725" y2="24.8704" gradientUnits="userSpaceOnUse">
<stop stop-color="#FFB10A"/>
<stop offset="1" stop-color="#FBD50A"/>
</linearGradient>
<linearGradient id="paint2_linear_1079_386" x1="29.3849" y1="25.382" x2="40.2109" y2="30.3467" gradientUnits="userSpaceOnUse">
<stop stop-color="#FFB10A"/>
<stop offset="1" stop-color="#FBD50A"/>
</linearGradient>
<linearGradient id="paint3_linear_1079_386" x1="38.966" y1="20.7795" x2="50.6346" y2="24.8704" gradientUnits="userSpaceOnUse">
<stop stop-color="#FFB10A"/>
<stop offset="1" stop-color="#FBD50A"/>
</linearGradient>
<linearGradient id="paint4_linear_1079_386" x1="17.8395" y1="12.3752" x2="28.3841" y2="34.9156" gradientUnits="userSpaceOnUse">
<stop stop-color="#FFB10A"/>
<stop offset="1" stop-color="#FBD50A"/>
</linearGradient>
</defs>
</svg>
