<svg width="18" height="19" viewBox="0 0 18 19" fill="none" xmlns="http://www.w3.org/2000/svg">
<path d="M5.4972 13.0112C5.71747 13.1668 5.98065 13.25 6.2503 13.2493C6.51995 13.2486 6.78271 13.1641 7.0022 13.0075C7.2247 12.845 7.39345 12.62 7.48595 12.36L8.0447 10.6437C8.18845 10.2137 8.4297 9.8225 8.7497 9.50125C9.07052 9.18091 9.46113 8.93919 9.89095 8.795L11.6297 8.23125C11.8194 8.16295 11.9908 8.05187 12.1306 7.90663C12.2704 7.76139 12.3749 7.58589 12.436 7.39375C12.4881 7.22971 12.5071 7.05696 12.4919 6.88551C12.4767 6.71407 12.4277 6.54734 12.3475 6.39501C12.2674 6.24268 12.1578 6.10778 12.0252 5.99812C11.8925 5.88847 11.7394 5.80626 11.5747 5.75624L9.85595 5.1975C9.42555 5.05428 9.03435 4.81292 8.71327 4.49249C8.3922 4.17207 8.15004 3.78136 8.00595 3.35125L7.44095 1.61625C7.36721 1.4095 7.24247 1.22473 7.07829 1.07905C6.91411 0.933363 6.7158 0.831491 6.50176 0.782872C6.28771 0.734254 6.06485 0.740464 5.85385 0.800926C5.64284 0.861389 5.45052 0.974146 5.2947 1.12875C5.15012 1.27129 5.04058 1.44544 4.9747 1.6375L4.40345 3.3875C4.26154 3.80675 4.02554 4.18795 3.71354 4.5019C3.40154 4.81585 3.02181 5.05422 2.60345 5.19875L0.864703 5.75875C0.675724 5.82803 0.505013 5.93946 0.36553 6.08457C0.226047 6.22969 0.121458 6.40467 0.0597028 6.59625C-0.000354894 6.7885 -0.0153579 6.992 0.0158557 7.19099C0.0470693 7.38998 0.123662 7.57911 0.239703 7.74374C0.399703 7.96875 0.625953 8.1375 0.885953 8.22625L2.60345 8.78249C3.03604 8.92605 3.42891 9.16913 3.75044 9.49218C4.07197 9.81523 4.31319 10.2092 4.4547 10.6425L5.0197 12.3812C5.1097 12.6362 5.2772 12.8562 5.4972 13.0112ZM13.1685 18.0637C13.3373 18.1841 13.5394 18.249 13.7468 18.2495C13.9542 18.2499 14.1566 18.1859 14.326 18.0662C14.5012 17.9439 14.6326 17.7687 14.701 17.5662L15.011 16.6137C15.0765 16.4156 15.1875 16.2355 15.3351 16.0879C15.4827 15.9403 15.6628 15.8293 15.861 15.7637L16.826 15.4487C17 15.3903 17.1544 15.2845 17.2716 15.1431C17.3889 15.0018 17.4644 14.8306 17.4897 14.6487C17.5257 14.4126 17.4755 14.1715 17.3483 13.9693C17.2212 13.7671 17.0256 13.6174 16.7972 13.5475L15.8422 13.2362C15.6448 13.1701 15.4653 13.0592 15.3178 12.9122C15.1704 12.7651 15.0589 12.586 14.9922 12.3887L14.6772 11.4225C14.6088 11.2258 14.4808 11.0554 14.311 10.935C14.1188 10.7966 13.8836 10.7313 13.6476 10.7508C13.4116 10.7702 13.1903 10.8732 13.0235 11.0412C12.9125 11.1516 12.829 11.2865 12.7797 11.435L12.471 12.3875C12.4071 12.5834 12.2989 12.762 12.1547 12.9092C12.0105 13.0565 11.8343 13.1684 11.6397 13.2362L10.6735 13.5512C10.4747 13.6187 10.3021 13.747 10.1803 13.9179C10.0585 14.0889 9.99355 14.2938 9.9947 14.5037C9.99582 14.7136 10.0629 14.9178 10.1866 15.0874C10.3102 15.257 10.484 15.3834 10.6835 15.4487L11.6372 15.7575C11.836 15.825 12.0172 15.9362 12.1647 16.0837C12.3135 16.2325 12.4235 16.4125 12.4872 16.6112L12.8035 17.5787C12.8719 17.7743 12.9995 17.9438 13.1685 18.0637Z" fill="#121212"/>
</svg>
