<svg width="15" height="11" viewBox="0 0 15 11" fill="none" xmlns="http://www.w3.org/2000/svg">
<g id="Group 15902">
<path id="Vector" d="M7.5 7.5C8.60457 7.5 9.5 6.60457 9.5 5.5C9.5 4.39543 8.60457 3.5 7.5 3.5C6.39543 3.5 5.5 4.39543 5.5 5.5C5.5 6.60457 6.39543 7.5 7.5 7.5Z" fill="#121212"/>
<path id="Vector_2" d="M11.8381 1.91187C10.4719 0.975 9.00969 0.5 7.4925 0.5C6.12719 0.5 4.79625 0.90625 3.53656 1.7025C2.26625 2.50719 1.02094 3.96875 0 5.5C0.825625 6.875 1.955 8.28875 3.13125 9.09937C4.48063 10.0287 5.94781 10.5 7.4925 10.5C9.02375 10.5 10.4878 10.0291 11.8456 9.10031C13.0409 8.28125 14.1784 6.86938 15 5.5C14.1756 4.14281 13.0344 2.7325 11.8381 1.91187ZM7.5 8.5C6.90666 8.5 6.32664 8.32405 5.83329 7.99441C5.33994 7.66476 4.95542 7.19623 4.72836 6.64805C4.5013 6.09987 4.44189 5.49667 4.55764 4.91473C4.6734 4.33279 4.95912 3.79824 5.37868 3.37868C5.79824 2.95912 6.33279 2.6734 6.91473 2.55764C7.49667 2.44189 8.09987 2.5013 8.64805 2.72836C9.19623 2.95542 9.66476 3.33994 9.99441 3.83329C10.3241 4.32664 10.5 4.90666 10.5 5.5C10.4991 6.29537 10.1827 7.0579 9.62032 7.62032C9.0579 8.18273 8.29537 8.49909 7.5 8.5Z" fill="#121212"/>
</g>
</svg>
