<svg width="41" height="40" viewBox="0 0 41 40" fill="none" xmlns="http://www.w3.org/2000/svg">
<path d="M6.12015 12.1879C5.80084 12.2498 5.48323 12.2635 5.17246 12.236C5.16051 12.236 5.14855 12.2343 5.1366 12.2326C4.15305 12.1347 3.26172 11.6141 2.68798 10.8237C2.60773 10.712 2.53259 10.5952 2.466 10.4732C2.29012 10.1553 2.16035 9.80656 2.08863 9.43029C1.73175 7.54891 2.95948 5.73282 4.82924 5.37201C5.29711 5.28267 5.76327 5.29298 6.2004 5.38747C6.48556 5.44933 6.76048 5.54726 7.01661 5.67784C7.52033 5.93213 7.95917 6.3084 8.28873 6.77574C8.35532 6.87024 8.41679 6.96817 8.47314 7.06954C8.65414 7.39084 8.78733 7.74822 8.85905 8.12965C9.21593 10.011 7.9882 11.8271 6.11844 12.1879H6.12015Z" fill="#FBD50A"/>
<path d="M35.1075 35.3313C34.672 35.4155 34.2417 35.4327 33.8217 35.3915C33.7175 35.3812 33.6134 35.3674 33.5109 35.3485C33.4409 35.3365 33.3709 35.3227 33.3043 35.3073C32.9969 35.2403 32.6981 35.1406 32.4147 35.0118C31.8068 34.7368 31.2638 34.3262 30.8301 33.8142C30.7566 33.7283 30.6866 33.639 30.62 33.5479C30.5056 33.3898 30.3998 33.2249 30.3058 33.0496C30.299 33.0359 30.2922 33.0239 30.2854 33.0084C30.077 32.6166 29.9234 32.1854 29.8363 31.7249C29.3701 29.2628 30.9752 26.8883 33.4204 26.4193C34.0317 26.3007 34.6396 26.3127 35.2133 26.4382C35.2389 26.445 35.2663 26.4502 35.2902 26.4554C35.3038 26.4588 35.3192 26.4622 35.3346 26.4674C35.4404 26.4932 35.5463 26.5241 35.6505 26.5567C36.716 26.9021 37.6295 27.6426 38.1896 28.6374C38.1947 28.6477 38.1998 28.6563 38.2067 28.6666C38.2323 28.7113 38.2545 28.7542 38.2784 28.7989C38.3108 28.8608 38.3398 28.9243 38.3689 28.9896C38.5157 29.3126 38.625 29.6597 38.695 30.024C39.1612 32.4843 37.5561 34.8606 35.1109 35.3296L35.1075 35.3313Z" fill="#FBD50A"/>
<path d="M30.1966 34.2783C30.1027 34.3436 30.0087 34.4089 29.9131 34.4724C27.8794 35.8092 25.5606 36.7112 23.1581 37.0651C14.6733 38.3984 6.47876 32.9776 4.15821 24.7082C3.09782 21.009 3.29931 16.949 4.73877 13.3804C4.77463 13.2911 4.8122 13.2034 4.84976 13.1158C4.87538 13.0539 4.83781 12.9852 4.77292 12.9749C3.69034 12.7911 2.71362 12.188 2.05963 11.2877C2.01524 11.2258 1.92132 11.2327 1.88717 11.2997C1.76423 11.5454 1.65324 11.7963 1.54737 12.0505C-0.534128 16.9456 -0.515345 22.6842 1.60201 27.5637C5.20323 36.0102 14.3266 40.8382 23.2776 39.1784C26.3068 38.6321 29.1994 37.3675 31.6548 35.5068M40.3735 19.8183C40.3223 8.82042 31.1221 -0.273759 20.1835 0.00630027C15.6995 0.0956442 11.2445 1.73992 7.87724 4.72263C7.87724 4.72263 7.87383 4.72606 7.87212 4.72778C7.78845 4.81025 7.70649 4.89444 7.62453 4.97863C7.57842 5.02674 7.59038 5.10406 7.64672 5.1367C8.14874 5.44082 8.58587 5.8463 8.92226 6.32395C8.92567 6.3291 8.92909 6.33254 8.9308 6.33769C9.45501 5.97173 9.96728 5.59201 10.5034 5.24323C21.9833 -2.06407 36.9585 6.09371 36.8731 19.8183C36.8321 21.8612 36.634 23.8835 35.9732 25.7391C35.9544 25.7923 35.9817 25.849 36.0347 25.8679C37.008 26.2167 37.8498 26.8387 38.4679 27.6582C38.514 27.7201 38.6114 27.7063 38.6421 27.6342C39.6632 25.148 40.406 22.5244 40.3701 19.8166L40.3735 19.8183Z" fill="#FBD50A"/>
<path d="M7.41122 18.71C7.92349 12.6758 12.5834 7.83063 18.5103 7.07808C18.985 8.41824 19.154 9.86321 18.9406 11.2601C18.2576 15.7359 14.7912 18.9643 10.3226 19.124C9.35783 19.1584 8.37428 18.9351 7.40952 18.71H7.41122Z" fill="#FBD50A"/>
<path d="M19.1744 32.62C13.2082 32.1784 8.38096 27.6082 7.5067 21.7372C9.8597 20.9572 12.5491 21.141 14.885 22.4726C18.4367 24.4966 20.1596 28.7181 19.1744 32.62Z" fill="#FBD50A"/>
<path d="M21.1569 10.2978C21.0476 9.1879 21.2013 8.11062 21.512 7.05224C25.3181 7.46631 28.6222 9.5659 30.673 12.5916C30.6781 12.5984 30.6833 12.6053 30.6884 12.6122C30.7533 12.7101 30.8199 12.808 30.8813 12.9077C30.8813 12.9077 30.883 12.9111 30.8847 12.9129C30.9069 12.9489 30.9308 12.9867 30.953 13.0228C30.9616 13.0366 30.9701 13.0503 30.9787 13.0641C31.0111 13.1173 31.0435 13.1706 31.0743 13.2221C31.0948 13.2565 31.1136 13.2891 31.134 13.3235C31.1409 13.3338 31.1477 13.3458 31.1545 13.3579C31.1921 13.4249 31.2314 13.4902 31.2689 13.5589C31.2689 13.5606 31.2707 13.564 31.2741 13.5675C31.3202 13.6517 31.3663 13.7376 31.4124 13.8235L31.4175 13.8321C31.4414 13.8785 31.4653 13.9248 31.4892 13.9712C31.5131 14.0159 31.5353 14.064 31.5592 14.1104C31.7197 14.4351 31.8666 14.7685 31.9998 15.1087C32.0117 15.1379 32.0237 15.1688 32.0339 15.198C32.0612 15.2719 32.0903 15.3458 32.1159 15.4196C32.15 15.5107 32.1808 15.6035 32.2132 15.6963C32.2303 15.7409 32.244 15.7873 32.2593 15.8354C32.2713 15.8732 32.2849 15.911 32.2952 15.9488C32.302 15.9677 32.3071 15.9884 32.314 16.009C32.343 16.1052 32.372 16.2031 32.401 16.3011C32.4147 16.3526 32.4284 16.4024 32.4437 16.454C32.4574 16.5055 32.4711 16.5588 32.4847 16.612C32.4967 16.6619 32.5103 16.7117 32.5223 16.7615C32.5342 16.8131 32.5479 16.8646 32.5581 16.9162C32.582 17.0192 32.6042 17.124 32.6264 17.2271C32.635 17.2684 32.6435 17.3113 32.6521 17.3526C32.6555 17.3697 32.6589 17.3886 32.6623 17.4058C32.6794 17.5038 32.6965 17.6 32.7152 17.6979C32.7152 17.6979 32.7152 17.6979 32.7152 17.6996C32.7323 17.8027 32.7477 17.9058 32.763 18.0106C32.7767 18.1137 32.7904 18.2185 32.8023 18.3233C30.8096 18.9367 28.6069 18.8748 26.6449 17.9883C23.3289 16.4918 21.5189 13.9145 21.1603 10.2927L21.1569 10.2978Z" fill="#FBD50A"/>
<path d="M32.8125 21.179C32.7442 21.8353 32.6264 22.4762 32.4608 23.1016C32.4369 23.1892 32.4129 23.2786 32.389 23.3662C32.3771 23.4109 32.3634 23.4573 32.3498 23.502C32.3481 23.5105 32.3446 23.5209 32.3412 23.5294C32.3088 23.6377 32.2763 23.7442 32.2405 23.8507C32.1995 23.9727 32.1585 24.0947 32.1141 24.215C32.0971 24.2614 32.08 24.3078 32.0629 24.3542C32.0527 24.3834 32.0407 24.4126 32.0288 24.4418C31.9792 24.5741 31.9246 24.7064 31.87 24.8352C31.8529 24.8765 31.8358 24.916 31.8187 24.9555C31.7777 25.0517 31.7351 25.1462 31.6907 25.2407C31.5763 25.4847 31.4567 25.727 31.3287 25.9623C31.2979 26.0173 31.2672 26.0723 31.2382 26.1273C31.1989 26.1977 31.1596 26.2665 31.1186 26.3335C29.1806 29.6358 25.815 31.9896 21.8757 32.5343C21.4864 31.2199 21.3839 29.8093 21.6127 28.4159C22.3606 23.8387 26.3699 20.6807 30.7618 20.8457C31.4465 20.8715 32.1312 21.0123 32.8091 21.179" fill="#FBD50A"/>
</svg>
