<svg width="1438" height="254" viewBox="0 0 1438 254" fill="none" xmlns="http://www.w3.org/2000/svg">
<path d="M0.625732 249.607V4.21387H162.34V51.9068H56.1754V96.4266H145.814V144.119H56.1754V201.947H162.34V249.64H0.625732V249.607Z" fill="url(#paint0_linear_1105_210)"/>
<path d="M301.165 253.812C275.614 253.812 253.829 248.372 235.778 237.493C217.727 226.614 203.961 211.72 194.481 192.811C185.001 173.87 180.229 152.145 180.229 127.602C180.229 103.059 184.871 81.1394 194.124 61.8745C203.377 42.6095 217.013 27.4566 235.064 16.4804C253.115 5.50426 275.127 0 301.165 0C331.618 0 356.715 7.64121 376.389 22.956C396.064 38.2709 408.141 59.9318 412.589 87.9712H351.78C349.442 76.0561 343.761 66.8283 334.735 60.2879C325.71 53.7476 314.184 50.4774 300.094 50.4774C287.919 50.4774 277.01 53.3267 267.4 59.0576C257.79 64.7885 250.291 73.3039 244.901 84.6362C239.512 95.9686 236.817 110.28 236.817 127.57C236.817 144.859 239.447 158.491 244.739 169.823C249.998 181.155 257.433 189.703 267.076 195.402C276.686 201.133 287.692 203.982 300.126 203.982C314.184 203.982 325.742 201.003 334.768 195.045C343.793 189.088 349.475 180.605 351.812 169.629H412.621C408.173 195.79 396.096 216.383 376.422 231.341C356.747 246.3 331.651 253.779 301.198 253.779L301.165 253.812Z" fill="url(#paint1_linear_1105_210)"/>
<path d="M438.629 249.607V4.21387H494.178V201.591H594.726V249.607H438.661H438.629Z" fill="url(#paint2_linear_1105_210)"/>
<path d="M622.451 249.607V4.21387H678.001V249.607H622.451Z" fill="url(#paint3_linear_1105_210)"/>
<path d="M711.375 249.607V4.21387H809.098C825.98 4.21387 841.207 7.2574 854.81 13.3121C868.381 19.3992 879.127 28.1736 886.984 39.6031C894.841 51.0649 898.769 64.7285 898.769 80.6261C898.769 96.5237 894.971 109.896 887.341 121.455C879.711 133.014 869.192 141.95 855.687 148.264C842.213 154.578 826.694 157.718 809.098 157.718H766.924V249.575H711.375V249.607ZM766.924 110.414H807.701C820.818 110.414 829.908 107.435 834.941 101.478C839.973 95.52 842.505 88.5587 842.505 80.6261C842.505 73.1468 839.973 66.4121 834.941 60.4546C829.908 54.497 820.818 51.5182 807.701 51.5182H766.924V110.414Z" fill="url(#paint4_linear_1105_210)"/>
<path d="M976.787 249.604V51.8706H906.14V4.17773H1102.98V51.8706H1031.98V249.604H976.787Z" fill="url(#paint5_linear_1105_210)"/>
<path d="M1123.73 249.607V4.21387H1179.28V249.607H1123.73Z" fill="url(#paint6_linear_1105_210)"/>
<path d="M1326.54 253.812C1300.99 253.812 1279.21 248.372 1261.16 237.493C1243.11 226.614 1229.34 211.72 1219.86 192.811C1210.38 173.87 1205.61 152.145 1205.61 127.602C1205.61 103.059 1210.25 81.1394 1219.5 61.8745C1228.76 42.6095 1242.39 27.4566 1260.44 16.4804C1278.49 5.50426 1300.51 0 1326.54 0C1357 0 1382.09 7.64121 1401.77 22.956C1421.44 38.2709 1433.52 59.9318 1437.97 87.9712H1377.16C1374.82 76.0561 1369.14 66.8283 1360.11 60.2879C1351.09 53.7476 1339.56 50.4774 1325.47 50.4774C1313.3 50.4774 1302.39 53.3267 1292.78 59.0576C1283.17 64.7885 1275.67 73.3039 1270.28 84.6362C1264.89 95.9686 1262.2 110.28 1262.2 127.57C1262.2 144.859 1264.83 158.491 1270.12 169.823C1275.38 181.155 1282.81 189.703 1292.45 195.402C1302.06 201.133 1313.07 203.982 1325.5 203.982C1339.56 203.982 1351.12 201.003 1360.15 195.045C1369.17 189.088 1374.85 180.605 1377.19 169.629H1438C1433.55 195.79 1421.47 216.383 1401.8 231.341C1382.13 246.3 1357.03 253.779 1326.58 253.779L1326.54 253.812Z" fill="url(#paint7_linear_1105_210)"/>
<defs>
<linearGradient id="paint0_linear_1105_210" x1="81.4827" y1="4.21387" x2="81.4827" y2="249.64" gradientUnits="userSpaceOnUse">
<stop stop-color="white"/>
<stop offset="1" stop-color="#FFF7B1" stop-opacity="0.9"/>
</linearGradient>
<linearGradient id="paint1_linear_1105_210" x1="296.425" y1="0" x2="296.425" y2="253.812" gradientUnits="userSpaceOnUse">
<stop stop-color="white"/>
<stop offset="1" stop-color="#FFF7B1" stop-opacity="0.9"/>
</linearGradient>
<linearGradient id="paint2_linear_1105_210" x1="516.677" y1="4.21387" x2="516.677" y2="249.607" gradientUnits="userSpaceOnUse">
<stop stop-color="white"/>
<stop offset="1" stop-color="#FFF7B1" stop-opacity="0.9"/>
</linearGradient>
<linearGradient id="paint3_linear_1105_210" x1="650.226" y1="4.21387" x2="650.226" y2="249.607" gradientUnits="userSpaceOnUse">
<stop stop-color="white"/>
<stop offset="1" stop-color="#FFF7B1" stop-opacity="0.9"/>
</linearGradient>
<linearGradient id="paint4_linear_1105_210" x1="805.072" y1="4.21387" x2="805.072" y2="249.607" gradientUnits="userSpaceOnUse">
<stop stop-color="white"/>
<stop offset="1" stop-color="#FFF7B1" stop-opacity="0.9"/>
</linearGradient>
<linearGradient id="paint5_linear_1105_210" x1="1004.56" y1="4.17773" x2="1004.56" y2="249.604" gradientUnits="userSpaceOnUse">
<stop stop-color="white"/>
<stop offset="1" stop-color="#FFF7B1" stop-opacity="0.9"/>
</linearGradient>
<linearGradient id="paint6_linear_1105_210" x1="1151.5" y1="4.21387" x2="1151.5" y2="249.607" gradientUnits="userSpaceOnUse">
<stop stop-color="white"/>
<stop offset="1" stop-color="#FFF7B1" stop-opacity="0.9"/>
</linearGradient>
<linearGradient id="paint7_linear_1105_210" x1="1321.8" y1="0" x2="1321.8" y2="253.812" gradientUnits="userSpaceOnUse">
<stop stop-color="white"/>
<stop offset="1" stop-color="#FFF7B1" stop-opacity="0.9"/>
</linearGradient>
</defs>
</svg>
