<svg width="43" height="34" viewBox="0 0 43 34" fill="none" xmlns="http://www.w3.org/2000/svg">
<g clip-path="url(#clip0_1102_31)">
<path d="M22.9487 16.797C15.4007 16.9997 13.5514 32.9139 13.5514 32.9139L1.4921 33.2378C1.4921 33.2378 3.37032 17.3227 10.8894 17.1208C3.3414 17.3235 0.390137 1.53809 0.390137 1.53809L12.4495 1.21426C12.4509 1.25418 15.4007 16.9997 22.9487 16.797Z" fill="#FFF3B2"/>
<path d="M41.6596 16.295C34.1118 16.4977 32.2625 32.412 32.2625 32.412L20.2029 32.7358C20.2029 32.7358 22.0811 16.8207 29.6002 16.6188C22.0522 16.8215 19.101 1.03613 19.101 1.03613L31.1605 0.712301C31.1328 0.753006 34.1118 16.4977 41.6596 16.295Z" fill="#FFF3B2"/>
</g>
<defs>
<clipPath id="clip0_1102_31">
<rect width="41" height="32" fill="white" transform="matrix(0.99964 -0.0268431 0.0347416 0.999396 0.313354 1.29004)"/>
</clipPath>
</defs>
</svg>
