<svg width="164" height="122" viewBox="0 0 164 122" fill="none" xmlns="http://www.w3.org/2000/svg">
<g clip-path="url(#clip0_1006_111)">
<path d="M58.3493 52.0965L56.5448 51.1966C34.1698 40.0369 17.8394 36.617 9.8999 37.247C9.7195 37.247 9.53901 37.247 9.44876 37.247C9.35861 37.067 9.26864 36.977 9.26864 36.797C9.17839 36.617 9.17822 36.527 9.088 36.347C7.55423 30.8572 22.7116 29.8673 48.4249 40.3969C48.6955 40.4869 48.966 40.5769 49.1465 40.7569C49.4171 40.8469 49.6877 40.9368 49.9583 41.1169C50.1388 41.2968 50.3192 41.5669 50.4095 41.8368C52.3041 44.5367 54.5601 47.4166 57.0862 50.5665L58.3493 52.0965Z" fill="#FBD50A"/>
<path d="M51.8529 60.7361L50.4092 61.276C34.2595 66.7659 21.1773 72.2557 12.516 77.0255C10.2605 78.2854 8.54624 79.3654 7.10268 80.3554C6.83202 80.5353 6.56144 80.7154 6.29077 80.8953C6.38099 80.6253 6.56144 80.3554 6.74188 79.9954C7.01255 79.6354 7.28321 79.2754 7.64411 78.8254C11.7041 74.5056 23.8839 67.8458 44.9959 60.016C45.2666 59.9261 45.5375 59.8361 45.7179 59.7461C45.9886 59.6561 46.1689 59.5661 46.4395 59.4761C46.7102 59.5661 46.9808 59.5661 47.2514 59.6561C48.2439 59.9261 49.2367 60.106 50.3194 60.376L51.8529 60.7361Z" fill="#FBD50A"/>
<path d="M73.1456 83.5052C73.0553 83.6852 72.9652 83.8652 72.7848 84.0452C72.6945 84.2252 72.5141 84.4052 72.424 84.6751C65.6572 95.9252 59.4319 103.754 54.7403 108.074C53.8381 108.884 53.0259 109.604 52.2139 110.145C51.5823 110.594 51.041 110.954 50.4998 111.224C50.9509 110.774 51.4019 110.324 51.8531 109.784C57.3566 103.935 64.3939 94.2144 71.7019 80.8052L72.3336 79.7253L72.6041 80.9853C72.6943 81.6152 72.8747 82.2452 72.9649 82.7852C73.0551 83.0552 73.1456 83.2352 73.1456 83.5052Z" fill="#FBD50A"/>
<path d="M74.7691 37.157C74.679 37.337 74.6792 37.517 74.589 37.697C74.0476 40.037 73.5964 42.5568 73.055 45.1667L72.8749 46.1567L72.2432 45.3467C60.6947 29.7773 50.4996 20.5976 44.6351 18.0777C44.4547 17.9877 44.2741 17.8977 44.0937 17.8977C44.0937 17.7177 44.0039 17.5377 44.0039 17.3577C44.0039 17.1777 43.9135 16.9977 43.9135 16.8177C42.6504 7.45805 55.8228 13.1278 74.0475 36.2571C74.1378 36.437 74.3182 36.5271 74.4084 36.707C74.4986 36.8871 74.679 36.977 74.7691 37.157Z" fill="#FBD50A"/>
<path d="M92.8137 116.714C92.6331 116.625 92.5429 116.625 92.3625 116.534C92.2722 116.444 92.0919 116.354 92.0017 116.354C92.0017 116.175 92.092 115.994 92.092 115.905C93.2649 109.604 92.3626 97.3653 87.9417 79.5456L87.6711 78.2856L88.6638 79.0056C90.7388 80.5355 92.7229 81.9755 94.6177 83.4155C94.7984 83.5054 94.9791 83.6854 95.1597 83.7755C95.1597 83.9554 95.2496 84.2254 95.2496 84.4054C95.2496 84.5854 95.3404 84.8554 95.3404 85.0354C99.9417 107.535 97.5048 118.514 92.8137 116.714Z" fill="#FBD50A"/>
<path d="M135.038 100.244C134.857 100.155 134.587 100.065 134.406 100.065C134.225 99.9743 133.956 99.8847 133.775 99.8847C133.684 99.7045 133.504 99.5242 133.324 99.2544C128.993 93.4945 118.256 83.5052 99.7612 70.1856L98.5881 69.3757H100.032C103.37 69.4657 106.528 69.4657 109.595 69.4657C109.865 69.4657 110.137 69.4657 110.407 69.4657C110.587 69.6457 110.768 69.7357 111.038 69.9157C111.219 70.0957 111.4 70.1856 111.67 70.3657C140.631 92.4149 146.857 103.935 135.038 100.244Z" fill="#FBD50A"/>
<path d="M88.5736 45.3468L87.4907 46.2467L87.8515 44.8968C93.8961 22.1276 93.6255 9.16805 90.6485 6.28815C90.1974 5.92816 89.7462 5.74817 89.2952 5.74817C89.1147 5.74817 88.9343 5.83816 88.844 5.83816H88.7537C88.844 5.65817 89.0247 5.47817 89.115 5.29818C89.2052 5.11819 89.2954 4.93819 89.4758 4.8482C97.0547 -6.13142 102.377 5.92816 93.2651 40.4869V40.577C94.2574 39.767 95.2498 38.9571 96.1522 38.2371C135.038 6.73813 152.992 6.64814 131.61 27.4374C129.985 29.0574 128.091 30.7673 125.925 32.6572C125.925 32.6572 125.925 32.6572 125.835 32.7472C122.948 35.2671 119.7 37.967 115.911 40.8469C119.88 37.6071 123.219 34.6371 125.925 32.0273C132.602 25.5475 135.67 21.1377 135.398 18.9777C135.308 18.5277 135.128 18.1677 134.587 17.9877C130.256 16.3678 112.753 25.3675 88.5736 45.3468Z" fill="#FBD50A"/>
<path d="M158.315 59.8362C158.134 59.9262 158.044 59.9261 157.863 60.0161C157.684 60.1061 157.593 60.1962 157.412 60.1962C157.412 60.0161 157.412 59.9262 157.412 59.7461C157.412 59.4762 157.233 59.2062 157.142 59.0262C155.699 56.7763 149.834 54.7964 140.993 53.8063C130.526 52.5464 116.452 52.5464 100.212 53.8063L98.5881 53.8963L99.9418 52.9964C101.656 51.8264 103.279 50.5665 104.814 49.4865C105.084 49.3065 105.264 49.1265 105.535 48.9465C105.806 48.9465 106.077 48.9465 106.347 48.8565C106.618 48.8565 106.888 48.7665 107.16 48.7665C154.797 45.3466 171.577 53.7164 158.315 59.8362Z" fill="#FBD50A"/>
<path d="M46.4397 59.4762C46.169 59.3863 45.8985 59.3863 45.6278 59.2963C45.3571 59.3863 45.0866 59.4762 44.9062 59.5662C44.6355 59.6563 44.3646 59.7463 44.1842 59.8363C23.3429 67.666 9.53902 74.8657 6.38125 79.7255C6.2008 79.9955 6.02035 80.3555 5.93013 80.6256C5.83991 80.8955 5.74951 81.0755 5.74951 81.3456C5.92996 81.2555 6.11049 81.0755 6.29093 80.8955C6.5616 80.7155 6.83217 80.5356 7.10284 80.3555C7.28328 79.9956 7.55395 79.6356 8.00506 79.1856C8.45617 78.7356 8.99785 78.1956 9.71961 77.6556C11.3436 76.3057 13.7796 74.6857 17.3885 72.7058C24.3356 68.926 34.0792 64.6061 45.8983 60.2862C46.1689 60.1963 46.4399 60.1063 46.6203 60.0163C46.891 59.9262 47.1615 59.8363 47.3419 59.7463C46.9811 59.5662 46.7103 59.4762 46.4397 59.4762ZM49.9583 41.0269C49.7779 40.7569 49.5974 40.5769 49.5071 40.307C49.2365 40.217 48.9659 40.1269 48.6953 40.037C48.4245 39.947 48.2443 39.857 47.9737 39.7669C28.0346 31.6673 13.8698 30.2273 9.71961 33.4672C8.81741 34.1872 8.36613 35.1772 8.63679 36.3471C8.63679 36.3471 8.63679 36.4371 8.63679 36.5271C8.63679 36.7071 8.72719 36.7971 8.81741 36.977C8.90763 37.067 8.90736 37.2471 8.99759 37.427C9.17803 37.427 9.35844 37.427 9.44868 37.337C9.62918 37.337 9.80958 37.337 9.89982 37.337C9.80958 37.1571 9.71961 37.067 9.71961 36.8871C9.62936 36.7071 9.62927 36.5271 9.53902 36.4371C9.53902 36.3471 9.53893 36.2571 9.44868 36.2571C9.26828 35.4471 9.53921 34.8172 10.1707 34.2771C13.6894 31.5772 27.4932 32.3872 48.8759 41.2069C49.1465 41.2969 49.4171 41.3869 49.5975 41.5669C49.8681 41.6569 50.1387 41.7469 50.4094 41.9269C50.2289 41.4769 50.0485 41.2969 49.9583 41.0269ZM73.1454 83.5054C73.1454 83.3255 73.0552 83.0554 73.0552 82.8755C72.965 83.0554 72.8748 83.2355 72.6944 83.4154C72.6041 83.5954 72.4237 83.7755 72.3336 84.0455C67.0104 92.8652 62.0482 99.7046 57.8077 104.385C56.5447 105.734 55.4622 106.904 54.3795 107.894C54.3795 107.894 54.3794 107.894 54.2891 107.985C53.4772 108.795 52.6651 109.425 51.9433 109.965C51.4922 110.504 51.0411 110.955 50.59 111.405C50.2291 111.764 49.868 112.125 49.5071 112.394C49.868 112.214 50.3195 112.034 50.7706 111.764C51.3119 111.494 51.9435 111.044 52.575 110.595C57.6274 106.815 64.7548 98.3552 72.6041 85.3954C72.6943 85.2154 72.8746 85.0354 72.9649 84.8554C73.0551 84.6754 73.1456 84.4954 73.3261 84.3154C73.2359 83.9554 73.2357 83.6855 73.1454 83.5054ZM74.4988 36.1671C74.4086 35.9871 74.2282 35.8971 74.138 35.7171C64.1233 23.1175 52.0335 11.328 45.9886 12.1379C44.9059 12.318 44.0939 12.8579 43.733 13.8479C43.4624 14.5678 43.3723 15.5578 43.4626 16.7278C43.4626 16.9077 43.4627 17.0878 43.5528 17.2677C43.5528 17.4477 43.6427 17.6277 43.6427 17.7178C43.8232 17.7178 44.0036 17.8078 44.0938 17.8977C44.2743 17.9877 44.4548 17.9877 44.6352 18.0777C44.6352 17.8977 44.545 17.7178 44.545 17.5377C44.545 17.3578 44.4551 17.1777 44.4551 16.9978C44.2746 15.7378 44.2743 14.8378 44.545 14.1178C44.8156 13.3978 45.3571 13.0379 46.0789 12.9479C50.4096 12.4079 61.0556 20.4176 73.867 36.7071C73.9573 36.8871 74.1381 37.067 74.2283 37.1571C74.3186 37.337 74.4989 37.427 74.5891 37.6071C74.6794 37.427 74.6791 37.2471 74.7693 37.067C74.7693 36.8871 74.8596 36.7071 74.8596 36.5271C74.7694 36.4371 74.6793 36.257 74.4988 36.1671ZM96.0614 85.3954C96.0614 85.2154 95.9715 84.9454 95.9715 84.7654C95.9715 84.5854 95.8817 84.3154 95.8817 84.1355C95.701 84.0455 95.5203 83.8654 95.3406 83.7754C95.1599 83.6855 94.9792 83.5054 94.7985 83.4154L94.9792 84.0455C94.9792 84.2254 95.0691 84.4954 95.0691 84.6754C98.678 102.854 97.8663 113.384 95.1599 115.905C94.6179 116.444 93.9869 116.534 93.2651 116.354C93.1743 116.354 93.1752 116.264 93.0844 116.264C92.9945 116.175 92.8139 116.175 92.6335 116.084C92.5433 115.994 92.3629 115.905 92.2727 115.814C92.2727 115.994 92.1824 116.175 92.1824 116.264C92.1824 116.445 92.0921 116.534 92.0921 116.714C92.1823 116.804 92.3626 116.895 92.4529 116.895C92.6333 116.984 92.723 116.984 92.8139 117.074H92.9037C93.2651 117.164 93.5356 117.254 93.8961 117.254C94.6178 117.254 95.2498 116.984 95.7909 116.445C98.3176 114.104 99.7612 104.475 96.0614 85.3954ZM112.211 70.3659C112.031 70.1859 111.851 70.0959 111.67 69.9159C111.49 69.7359 111.219 69.6459 111.038 69.4659H110.317C110.047 69.4659 109.775 69.4659 109.505 69.4659C109.685 69.6459 109.956 69.7359 110.137 69.9159C110.316 70.0959 110.497 70.1859 110.678 70.3659C131.519 86.0254 140.631 96.1953 140.27 99.5253C140.27 99.8848 140.09 100.155 139.729 100.335C138.826 100.694 137.203 100.515 134.767 99.7046C134.496 99.615 134.316 99.5253 134.045 99.4347C133.865 99.3451 133.594 99.2545 133.324 99.1649C133.504 99.3451 133.594 99.615 133.775 99.7952C133.956 99.9745 134.045 100.245 134.226 100.425C134.406 100.515 134.676 100.605 134.857 100.605C135.038 100.694 135.308 100.785 135.489 100.785C136.662 101.145 137.744 101.325 138.556 101.325C139.188 101.325 139.639 101.235 140.09 101.055C140.722 100.785 141.173 100.245 141.173 99.5253C141.624 95.3847 130.437 84.1354 112.211 70.3659ZM162.735 54.0764C159.758 49.3966 141.624 45.8867 107.881 48.2266C107.61 48.2266 107.339 48.2266 107.069 48.3166C106.888 48.3166 106.798 48.3166 106.618 48.3166C110.046 45.8867 113.294 43.4568 116.271 41.1169C119.97 38.237 123.399 35.4471 126.376 32.8372C126.376 32.8372 126.376 32.7472 126.466 32.7472C136.03 24.3775 141.443 17.8077 141.083 14.5678C140.992 13.7578 140.541 13.2179 139.729 12.8579C135.218 11.0579 117.986 19.6076 93.8961 39.4069C98.9486 19.7877 99.851 4.84818 96.0614 1.33831C95.2498 0.618331 94.3473 0.348329 93.2651 0.708317C91.9115 1.1583 90.3777 2.59824 88.7537 5.02816C88.6635 5.20815 88.4831 5.47816 88.3929 5.65814C88.2124 5.92813 88.032 6.19811 87.9418 6.37811C88.2124 6.19811 88.4831 6.10813 88.7537 6.01813H88.8439C89.0244 5.92813 89.2048 5.92812 89.2951 5.92812C89.3853 5.74814 89.4758 5.65813 89.566 5.47814C89.6563 5.29815 89.7463 5.20815 89.8366 5.02816C91.1899 3.13822 92.4531 1.96827 93.5356 1.60829C94.2574 1.3383 94.8893 1.51828 95.4304 2.05827C98.4075 4.84817 98.678 17.8977 92.6335 40.667L92.5432 41.1169L92.3625 41.8369L92.2727 42.0169L93.355 41.1169C94.3473 40.307 95.3406 39.497 96.3329 38.6871C96.4228 38.597 96.5126 38.597 96.6035 38.507C101.475 34.5472 106.077 31.1272 110.317 28.0673C125.565 17.2677 136.211 12.5879 139.369 13.8479C139.82 14.0279 140.09 14.2979 140.18 14.8378C140.361 16.5478 138.466 19.8776 134.045 24.5575C133.143 25.5475 132.151 26.5374 130.978 27.6174C129.534 29.0574 127.82 30.5873 125.925 32.2072C123.219 34.8172 119.88 37.787 115.911 41.0269C115.82 41.1169 115.73 41.1169 115.73 41.2069C112.753 43.6368 109.415 46.2467 105.625 49.0366C105.445 49.2167 105.174 49.3966 104.904 49.5766H105.084C105.264 49.5766 105.535 49.5767 105.716 49.4866C105.987 49.4866 106.257 49.4866 106.528 49.3966C122.136 48.2267 135.67 48.3167 145.865 49.4866C154.616 50.5666 160.571 52.4565 162.014 54.7065C162.465 55.3364 162.466 55.9664 162.104 56.6864C161.563 57.6764 160.299 58.5763 158.406 59.4762C158.315 59.5662 158.135 59.5662 157.954 59.6563C157.863 59.7463 157.684 59.7463 157.503 59.8363C157.503 60.0163 157.503 60.1063 157.503 60.2862C157.503 60.4663 157.412 60.6462 157.412 60.8262C157.593 60.7362 157.774 60.6462 157.954 60.6462C158.135 60.5562 158.315 60.4663 158.406 60.4663C160.751 59.3863 162.194 58.3063 162.826 57.2263C163.277 56.0563 163.277 55.0664 162.735 54.0764Z" fill="#FBD50A"/>
<path d="M157.864 59.5661C156.781 54.6162 137.744 50.3864 100.212 53.2663C102.107 51.9163 103.911 50.5664 105.716 49.3065C105.896 49.1265 106.166 48.9465 106.347 48.7665C106.528 48.5865 106.798 48.4065 106.979 48.2265C110.407 45.7065 113.385 43.2767 116.182 41.0267C119.88 37.9668 123.039 35.1769 125.655 32.6571C125.655 32.6571 125.655 32.6571 125.745 32.567C127.73 30.6772 129.444 28.8772 130.797 27.3472C144.33 11.9577 128.722 13.3078 96.4228 38.2369C96.3329 38.3268 96.2421 38.3268 96.1522 38.4169C94.7985 39.4068 93.5357 40.4868 92.0923 41.5668C90.7389 42.6467 89.3856 43.7266 88.0323 44.8966C94.9792 18.7975 93.6255 5.478 89.2953 5.20801C89.1149 5.20801 88.9343 5.20801 88.7539 5.20801C88.5734 5.20801 88.3029 5.29802 88.0323 5.38801C84.1527 7.00796 78.649 17.1776 74.3184 35.8969C74.3184 36.077 74.2285 36.2569 74.2285 36.4369C74.2285 36.6169 74.1382 36.7969 74.1382 36.9769C73.5969 39.4068 73.0553 42.0167 72.5139 44.8066C60.5144 28.6972 50.3196 19.6975 44.3649 17.2676C44.1845 17.1776 44.0039 17.0876 43.8235 17.0876C43.6431 16.9976 43.4627 16.9976 43.3724 16.9076C36.696 14.9277 36.7863 22.8473 48.4249 39.6768C48.6054 39.8568 48.6956 40.1268 48.876 40.3968C49.0565 40.5768 49.1467 40.8468 49.3272 41.1168C51.4023 43.9967 53.748 47.1465 56.4546 50.4765C34.1698 39.4068 17.4786 35.8069 9.35863 36.5269C9.17814 36.5269 8.99771 36.5269 8.90748 36.6169C8.72703 36.6169 8.63682 36.7069 8.45637 36.7069C-2.91159 38.3268 5.7498 49.5764 44.6355 59.3862C44.9061 59.4761 45.1771 59.5661 45.3575 59.5661C45.6282 59.6561 45.8988 59.6561 46.1694 59.7462C47.3423 60.0161 48.6055 60.3761 49.8686 60.6461C29.0273 67.8458 15.1328 74.1456 7.55416 79.0054C7.10304 79.2754 6.74224 79.5455 6.29113 79.8154C6.02047 79.9954 5.74989 80.1754 5.47922 80.3554C-8.95628 90.885 10.9826 92.6848 58.5295 76.7555C34.4402 112.305 37.3274 124.184 50.4096 111.404C50.8606 110.954 51.4021 110.414 51.8532 109.875C52.4848 109.155 53.2068 108.435 53.9285 107.624C53.9285 107.624 53.9283 107.624 54.0184 107.535C59.1611 101.594 65.2964 92.6848 71.8827 80.7154C72.063 81.5254 72.1533 82.2453 72.3338 83.0553C72.3338 83.2353 72.424 83.5053 72.424 83.6853C72.424 83.8653 72.5139 84.1352 72.5139 84.3153C79.461 117.704 89.205 127.604 91.9117 116.624C91.9117 116.444 92.0019 116.354 92.0019 116.174C92.0019 115.994 92.0923 115.905 92.0923 115.724C93.355 109.244 92.4532 96.915 88.0323 79.0054C90.1977 80.6253 92.363 82.2454 94.4381 83.6853C94.6188 83.8653 94.7995 83.9553 94.9792 84.0453C95.1599 84.1352 95.3397 84.3153 95.5203 84.4052C125.294 105.644 139.82 109.425 134.406 100.335C134.316 100.154 134.135 99.8846 133.955 99.7044C133.865 99.5251 133.684 99.3448 133.594 99.075C129.444 93.1349 118.347 82.9652 99.5805 69.3757C103.1 69.4658 106.528 69.5558 109.776 69.4658C110.047 69.4658 110.317 69.4658 110.497 69.4658C110.768 69.4658 110.948 69.4658 111.22 69.4658C140.903 69.1958 156.421 64.516 157.503 60.0161C157.503 59.8361 157.594 59.6561 157.594 59.5661C157.864 59.8361 157.864 59.6561 157.864 59.5661ZM157.322 60.7361C157.322 60.826 157.233 60.9161 157.233 61.0061C154.797 65.3259 138.376 69.2858 111.039 69.5558H110.317C110.047 69.5558 109.775 69.5558 109.505 69.5558C106.437 69.5558 103.28 69.5558 99.9418 69.4658H98.4983L99.6704 70.2758C118.166 83.5953 128.993 93.585 133.234 99.3448C133.414 99.5251 133.504 99.795 133.685 99.9743C133.865 100.154 133.956 100.424 134.135 100.605C135.129 102.134 135.489 103.215 135.399 104.024C135.399 104.385 135.219 104.655 134.857 104.835C131.61 106.275 118.166 100.245 95.7918 84.3153C95.6111 84.2253 95.4305 84.0452 95.2498 83.9553C95.07 83.8653 94.8894 83.6853 94.7087 83.5953C92.8139 82.2454 90.829 80.7154 88.7539 79.1855L87.7618 78.4655L88.0323 79.7254C92.4532 97.5444 93.3559 109.784 92.1826 116.084C92.1826 116.264 92.0923 116.444 92.0923 116.534C92.0923 116.714 92.0019 116.804 92.0019 116.984C91.641 118.694 91.0096 119.864 90.2878 120.494C89.7465 121.034 89.1149 121.124 88.3931 120.944C84.3331 119.594 78.1982 107.804 73.3263 84.4052C73.3263 84.2253 73.236 83.9553 73.236 83.7752C73.236 83.5953 73.1456 83.3253 73.1456 83.1453C73.0555 82.5153 72.8751 81.8854 72.7848 81.3453L72.5139 80.0854L71.8827 81.1654C64.5746 94.5748 57.5374 104.385 52.0338 110.145C51.5827 110.684 51.1316 111.134 50.6805 111.585C50.3196 111.944 49.9585 112.305 49.5976 112.574C46.8007 115.094 44.5454 116.444 43.0116 116.444C42.3801 116.444 42.0193 116.174 41.7486 115.724C39.9442 112.305 44.7259 99.2543 59.3419 77.5655L60.0635 76.4856L58.8005 76.9355C19.3735 90.1651 2.95301 89.9851 1.87035 86.8351C1.6899 86.2952 1.68973 84.7652 5.74971 81.7053C5.93016 81.6154 6.11069 81.4353 6.29113 81.2554C6.5618 81.0754 6.83238 80.8954 7.10304 80.7154C8.5466 79.7254 10.2608 78.6454 12.5163 77.3855C21.1777 72.6157 34.3501 67.1259 50.4096 61.636L51.8532 61.0961L50.3197 60.7361C49.3273 60.4661 48.2442 60.2861 47.2518 60.0161C46.9811 59.9261 46.7106 59.9261 46.4399 59.8361C46.1692 59.7462 45.8987 59.7461 45.628 59.6561C18.8321 52.9963 5.56945 45.3466 4.57701 40.8468C4.39656 40.0368 4.66705 39.4068 5.29861 38.8669C6.02038 38.3268 7.19362 37.8769 8.81761 37.6969C8.99806 37.6969 9.1785 37.6969 9.26875 37.6068C9.44915 37.6068 9.62965 37.6068 9.7198 37.6068C17.6593 36.9769 33.9893 40.4868 56.3643 51.5563L58.1687 52.4564L56.9057 50.8365C54.3795 47.6865 52.1241 44.8066 50.2294 42.1067C50.049 41.8367 49.8685 41.6568 49.7782 41.3867C49.5978 41.1168 49.4174 40.9368 49.3272 40.6667C40.8463 28.5172 38.5906 21.4075 39.6732 18.8875C39.9439 18.1675 40.4855 17.8075 41.2071 17.7175C41.8388 17.6276 42.6508 17.7175 43.5531 18.0775C43.7335 18.0775 43.914 18.1675 44.0041 18.2576C44.1846 18.3476 44.3647 18.3476 44.5451 18.4376C50.4096 20.9575 60.6047 30.1371 72.1531 45.7066L72.7848 46.5165L72.9651 45.5266C73.4162 42.9167 73.9577 40.3968 74.499 38.0569C74.5892 37.8769 74.5894 37.6969 74.6796 37.5169C74.6796 37.3369 74.7695 37.1569 74.7695 36.9769C78.9197 19.0675 83.9724 9.07788 87.6715 6.73796C87.9421 6.55797 88.2127 6.46795 88.4834 6.37796H88.5737C88.7542 6.28796 88.9346 6.28799 89.0248 6.28799C89.5661 6.19798 90.0173 6.37796 90.3781 6.82794C93.3559 9.61784 93.6265 22.6674 87.5812 45.4367L87.2204 46.7866L88.3028 45.8866C112.482 25.9073 130.075 16.9076 134.316 18.6176C134.767 18.7975 135.038 19.0676 135.129 19.6075C135.399 21.7675 132.421 26.1773 125.655 32.6571C122.948 35.2669 119.61 38.2368 115.64 41.4767C115.55 41.5668 115.46 41.5668 115.46 41.6567C112.483 44.0866 109.144 46.6966 105.355 49.4865C105.175 49.6665 104.904 49.8464 104.633 50.0265C103.1 51.1964 101.475 52.3664 99.7612 53.5364L98.4075 54.4363L100.032 54.3463C116.271 53.0863 130.347 53.0863 140.812 54.3463C149.654 55.4262 155.518 57.3162 156.962 59.5661C157.143 59.8361 157.233 60.1061 157.233 60.2861C157.233 60.4661 157.233 60.5561 157.233 60.7361C157.413 60.3761 157.413 60.5561 157.322 60.7361Z" fill="#FBD50A"/>
<path d="M158.315 59.3864C158.225 59.1163 158.134 58.7564 157.954 58.4863C154.976 53.8065 136.391 50.2066 101.836 52.7266C103.46 51.5566 105.084 50.3866 106.528 49.3067C106.708 49.1267 106.979 48.9467 107.159 48.7667C107.339 48.5867 107.61 48.4067 107.791 48.2267C115.279 42.5569 121.594 37.3371 126.286 32.8372C126.286 32.8372 126.286 32.7473 126.376 32.7473C128.361 30.8573 129.985 29.1474 131.429 27.5275C132.421 26.4475 133.233 25.3675 133.955 24.3775C135.579 22.1276 136.391 20.2377 136.211 18.8877C136.12 18.0778 135.669 17.5378 134.857 17.1778C131.789 16.0078 123.038 19.4278 110.227 27.8874C105.896 30.7673 101.114 34.1872 95.8817 38.2371C94.8893 38.957 93.9869 39.677 92.9945 40.487C92.8138 40.6669 92.6331 40.757 92.3624 40.937C91.2797 41.8369 90.1071 42.7369 88.9342 43.7268C93.9869 24.1076 94.8884 9.16807 91.0994 5.65819C90.6483 5.2082 90.1971 5.02823 89.6558 4.93823C89.4754 4.93823 89.2949 4.93823 89.2046 4.93823C89.0242 4.93823 88.7539 4.9382 88.5734 5.02821C88.4831 5.02821 88.3927 5.11821 88.3025 5.11821C84.2425 6.46816 78.5586 16.3678 74.0476 35.7172C73.9574 35.8971 73.9573 36.0772 73.9573 36.2571C73.9573 36.4372 73.8669 36.6171 73.8669 36.7971C73.3256 39.047 72.8748 41.477 72.3334 43.9969C63.3113 32.0273 51.6726 19.6977 44.3646 16.9978C44.1842 16.9078 44.0037 16.9078 43.9135 16.8178C43.7331 16.7278 43.6428 16.7278 43.4624 16.6378C42.6504 16.4578 41.8384 16.3678 41.2068 16.4578C40.1242 16.5478 39.3122 17.1778 38.9513 18.1677C37.598 21.5876 40.9361 29.4173 47.8832 39.677C48.0636 39.857 48.1539 40.127 48.3344 40.397C48.5148 40.577 48.605 40.847 48.7854 41.117C50.6801 43.7268 52.7552 46.6068 55.101 49.4867C34.2597 39.317 17.749 35.4472 9.44856 36.3471C9.26816 36.3471 9.08768 36.3471 8.99746 36.4371C8.81702 36.4371 8.7268 36.4372 8.54635 36.5271C6.92235 36.7971 5.65952 37.2471 4.75729 37.877C3.76485 38.597 3.40379 39.587 3.67446 40.757C4.75712 45.6168 17.6587 53.1766 44.0937 59.9263C44.3643 60.0163 44.6353 60.0163 44.8158 60.1063C45.0864 60.1963 45.357 60.1963 45.6276 60.2863C46.5299 60.5563 47.5224 60.7363 48.4246 61.0063C31.102 67.036 17.5685 72.8858 9.44856 77.7457C8.7268 78.1957 8.09551 78.5556 7.46395 79.0056C7.01284 79.2756 6.6516 79.5457 6.20049 79.8156C2.14051 82.6955 0.155625 85.0355 0.787178 86.8353C2.59161 92.1452 25.8689 88.4553 57.627 77.9256C44.9959 96.735 38.4099 111.494 40.6655 115.905C41.1166 116.714 41.8382 117.164 42.7404 117.164C44.9057 117.164 48.2441 114.915 52.3943 110.595C53.1161 109.875 53.8378 109.064 54.5595 108.164C55.552 107.085 56.5444 105.825 57.627 104.475C61.9577 98.895 66.8299 91.6052 71.8823 82.5155C71.9726 83.0555 72.0626 83.5955 72.1528 84.1354C72.243 84.3155 72.2432 84.5855 72.3334 84.7654C72.3334 84.9454 72.4237 85.2154 72.4237 85.3955C77.5664 110.054 83.8816 120.404 87.8513 121.665C88.2122 121.754 88.4829 121.844 88.8438 121.844C89.5656 121.844 90.1973 121.574 90.7386 121.034C91.4604 120.314 92.092 119.055 92.6333 117.254C92.6333 117.074 92.724 116.984 92.724 116.804C92.724 116.625 92.8138 116.534 92.8138 116.354C93.9869 110.234 93.5356 98.8053 89.1148 80.5356C91.0095 81.9756 92.9945 83.3254 94.8893 84.7654C95.0691 84.8554 95.2498 85.0354 95.4304 85.1254C95.6111 85.2154 95.7909 85.3955 95.9715 85.4854C111.67 96.5548 127.369 105.915 133.594 105.915C134.225 105.915 134.676 105.825 135.128 105.645C135.76 105.375 136.211 104.835 136.211 104.115C136.301 103.305 135.939 102.315 135.218 100.965C135.128 100.785 135.038 100.605 134.857 100.335C134.767 100.155 134.676 99.9745 134.497 99.7952C130.256 93.4049 118.166 82.6955 101.205 70.3659C104.452 70.4559 107.52 70.4559 110.497 70.4559H111.219C111.489 70.4559 111.67 70.4559 111.941 70.4559C140 70.0959 155.247 65.8661 157.774 61.4562C157.953 61.0963 158.135 60.7362 158.135 60.3763C158.135 60.1963 158.135 60.1063 158.135 59.9263C158.315 59.6563 158.315 59.4763 158.315 59.3864ZM157.322 60.7363C157.322 60.8262 157.232 60.9163 157.232 61.0063C154.797 65.3261 138.376 69.286 111.038 69.556H110.317C110.046 69.556 109.775 69.556 109.505 69.556C106.437 69.556 103.279 69.556 99.9418 69.466H98.4982L99.6703 70.276C118.166 83.5955 128.993 93.5852 133.233 99.3451C133.414 99.5253 133.503 99.7952 133.684 99.9745C133.865 100.155 133.955 100.425 134.135 100.605C135.128 102.134 135.489 103.215 135.398 104.024C135.398 104.385 135.218 104.655 134.857 104.835C131.609 106.275 118.166 100.245 95.7909 84.3155C95.6111 84.2255 95.4304 84.0454 95.2498 83.9555C95.0691 83.8655 94.8884 83.6855 94.7086 83.5955C92.8138 82.2456 90.8287 80.7156 88.7536 79.1857L87.7614 78.4657L88.032 79.7256C92.4529 97.5446 93.3549 109.784 92.1823 116.084C92.1823 116.264 92.092 116.444 92.092 116.534C92.092 116.714 92.0016 116.804 92.0016 116.984C91.6407 118.694 91.0093 119.864 90.2875 120.494C89.7462 121.034 89.1146 121.124 88.3928 120.945C84.3328 119.594 78.1979 107.805 73.326 84.4054C73.326 84.2255 73.2357 83.9555 73.2357 83.7755C73.2357 83.5955 73.1453 83.3255 73.1453 83.1455C73.0551 82.5155 72.8748 81.8856 72.7845 81.3455L72.5136 80.0856L71.8823 81.1656C64.5743 94.575 57.5371 104.385 52.0335 110.145C51.5824 110.685 51.1312 111.135 50.6802 111.585C50.3193 111.944 49.9582 112.305 49.5973 112.575C46.8004 115.094 44.5451 116.444 43.0113 116.444C42.3798 116.444 42.019 116.175 41.7483 115.724C39.9439 112.305 44.7256 99.2545 59.3415 77.5657L60.0631 76.4858L58.8001 76.9357C19.3732 90.1653 2.95268 89.9853 1.87001 86.8353C1.68958 86.2954 1.6894 84.7654 5.74938 81.7055C5.92983 81.6156 6.11036 81.4355 6.2908 81.2556C6.56147 81.0756 6.83205 80.8956 7.10272 80.7156C8.54627 79.7256 10.2605 78.6456 12.516 77.3857C21.1773 72.6159 34.3497 67.1261 50.4093 61.6362L51.8528 61.0963L50.3194 60.7363C49.327 60.4663 48.2439 60.2863 47.2515 60.0163C46.9808 59.9263 46.7102 59.9263 46.4396 59.8363C46.1689 59.7464 45.8983 59.7463 45.6276 59.6563C18.8318 52.9965 5.56912 45.3468 4.57667 40.847C4.39623 40.037 4.66672 39.407 5.29827 38.8671C6.02005 38.327 7.19329 37.8771 8.81728 37.6971C8.99772 37.6971 9.17817 37.6971 9.26835 37.6071C9.44884 37.6071 9.62924 37.6071 9.71949 37.6071C17.659 36.9771 33.9889 40.487 56.364 51.5566L58.1684 52.4566L56.9054 50.8367C54.3792 47.6868 52.1237 44.8068 50.2291 42.1069C50.0487 41.8369 49.8682 41.657 49.7779 41.3869C49.5975 41.117 49.417 40.9369 49.3269 40.6669C40.8459 28.5174 38.5903 21.4077 39.6729 18.8877C39.9436 18.1677 40.4851 17.8078 41.2068 17.7177C41.8384 17.6278 42.6505 17.7177 43.5527 18.0777C43.7332 18.0777 43.9136 18.1677 44.0038 18.2578C44.1843 18.3478 44.3643 18.3478 44.5448 18.4377C50.4093 20.9577 60.6044 30.1373 72.1528 45.7068L72.7845 46.5168L72.9647 45.5268C73.4158 42.9169 73.9574 40.397 74.4987 38.0571C74.5889 37.877 74.5891 37.6971 74.6793 37.517C74.6793 37.3371 74.7692 37.157 74.7692 36.9771C78.9193 19.0677 83.9721 9.07808 87.6712 6.73817C87.9418 6.55817 88.2124 6.46815 88.483 6.37816H88.5734C88.7539 6.28816 88.9343 6.28818 89.0245 6.28818C89.5658 6.19819 90.0169 6.37816 90.3778 6.82814C93.3549 9.61804 93.6255 22.6676 87.5808 45.4368L87.22 46.7868L88.3025 45.8868C112.482 25.9075 130.075 16.9078 134.316 18.6178C134.766 18.7977 135.038 19.0677 135.128 19.6077C135.398 21.7677 132.421 26.1775 125.655 32.6573C122.948 35.2672 119.61 38.237 115.64 41.477C115.55 41.567 115.46 41.567 115.46 41.6569C112.482 44.0868 109.144 46.6968 105.355 49.4867C105.174 49.6667 104.904 49.8466 104.633 50.0267C103.099 51.1966 101.475 52.3666 99.7611 53.5366L98.4074 54.4365L100.032 54.3465C116.271 53.0865 130.346 53.0865 140.812 54.3465C149.653 55.4264 155.517 57.3164 156.961 59.5663C157.142 59.8363 157.232 60.1063 157.232 60.2863C157.232 60.4663 157.232 60.5563 157.232 60.7363C157.413 60.3763 157.412 60.5563 157.322 60.7363Z" fill="#6B5B08"/>
</g>
<defs>
<clipPath id="clip0_1006_111">
<rect width="164" height="122" fill="white"/>
</clipPath>
</defs>
</svg>
