<svg width="35" height="35" viewBox="0 0 35 35" fill="none" xmlns="http://www.w3.org/2000/svg">
<path d="M7.68282 7.80236C7.9922 9.43333 6.92788 11.0077 5.30697 11.3205C5.03016 11.3741 4.75483 11.386 4.48542 11.3622C4.47505 11.3622 4.46469 11.3607 4.45433 11.3592C3.60169 11.2743 2.82898 10.823 2.33161 10.1379C2.26204 10.041 2.1969 9.93975 2.13917 9.834C1.9867 9.55845 1.8742 9.25609 1.81203 8.92989C1.50265 7.29892 2.56697 5.72454 4.18788 5.41175C4.59348 5.3343 4.99759 5.34324 5.37654 5.42516C5.62375 5.47878 5.86207 5.56368 6.08412 5.67688C6.5208 5.89732 6.90123 6.22352 7.18692 6.62865C7.24466 6.71057 7.29795 6.79547 7.34679 6.88335C7.5037 7.16189 7.61916 7.4717 7.68134 7.80236H7.68282Z" fill="#FFF9D8"/>
<path d="M5.30538 11.3205C5.02857 11.3741 4.75324 11.386 4.48383 11.3622C4.47347 11.3622 4.4631 11.3607 4.45274 11.3592C3.6001 11.2743 2.8274 10.823 2.33002 10.1379C2.26045 10.041 2.19532 9.93975 2.13759 9.834C1.98512 9.55845 1.87262 9.25609 1.81045 8.92989C1.50107 7.29892 2.56539 5.72454 4.18629 5.41175C4.59189 5.3343 4.99601 5.34324 5.37496 5.42516C5.62216 5.47878 5.86049 5.56368 6.08253 5.67688C6.51921 5.89732 6.89964 6.22352 7.18534 6.62865C7.24307 6.71057 7.29636 6.79547 7.34521 6.88335C7.50212 7.16189 7.61758 7.4717 7.67975 7.80236C7.98913 9.43333 6.92481 11.0077 5.3039 11.3205H5.30538Z" fill="#FFF9D8"/>
<path d="M30.4347 31.3843C30.0573 31.4572 29.6842 31.4721 29.3201 31.4364C29.2298 31.4274 29.1395 31.4155 29.0507 31.3991C28.99 31.3887 28.9293 31.3768 28.8715 31.3634C28.6051 31.3053 28.3461 31.2189 28.1003 31.1072C27.5733 30.8689 27.1026 30.5129 26.7266 30.069C26.663 29.9946 26.6023 29.9171 26.5446 29.8382C26.4454 29.7011 26.3536 29.5582 26.2722 29.4062C26.2663 29.3943 26.2603 29.3839 26.2544 29.3705C26.0738 29.0309 25.9406 28.657 25.8651 28.2578C25.461 26.1234 26.8525 24.065 28.9722 23.6584C29.5021 23.5556 30.0291 23.566 30.5265 23.6747C30.5487 23.6807 30.5724 23.6852 30.5931 23.6896C30.605 23.6926 30.6183 23.6956 30.6316 23.7001C30.7234 23.7224 30.8152 23.7492 30.9055 23.7775C31.8291 24.0769 32.6211 24.7189 33.1066 25.5813C33.1111 25.5902 33.1155 25.5976 33.1214 25.6066C33.1436 25.6453 33.1629 25.6825 33.1836 25.7213C33.2117 25.7749 33.2369 25.83 33.2621 25.8866C33.3894 26.1666 33.4841 26.4675 33.5448 26.7833C33.9489 28.9162 32.5574 30.9761 30.4377 31.3828L30.4347 31.3843Z" fill="#FFF9D8"/>
<path d="M30.4347 31.3843C30.0573 31.4572 29.6842 31.4721 29.3201 31.4364C29.2298 31.4274 29.1395 31.4155 29.0507 31.3991C28.99 31.3887 28.9293 31.3768 28.8715 31.3634C28.6051 31.3053 28.3461 31.2189 28.1003 31.1072C27.5733 30.8689 27.1026 30.5129 26.7266 30.069C26.663 29.9946 26.6023 29.9171 26.5446 29.8382C26.4454 29.7011 26.3536 29.5582 26.2722 29.4062C26.2663 29.3943 26.2603 29.3839 26.2544 29.3705C26.0738 29.0309 25.9406 28.657 25.8651 28.2578C25.461 26.1234 26.8525 24.065 28.9722 23.6584C29.5021 23.5556 30.0291 23.566 30.5265 23.6747C30.5487 23.6807 30.5724 23.6852 30.5931 23.6896C30.605 23.6926 30.6183 23.6956 30.6316 23.7001C30.7234 23.7224 30.8152 23.7492 30.9055 23.7775C31.8291 24.0769 32.6211 24.7189 33.1066 25.5813C33.1111 25.5902 33.1155 25.5976 33.1214 25.6066C33.1436 25.6453 33.1629 25.6825 33.1836 25.7213C33.2117 25.7749 33.2369 25.83 33.2621 25.8866C33.3894 26.1666 33.4841 26.4675 33.5448 26.7833C33.9489 28.9162 32.5574 30.9761 30.4377 31.3828L30.4347 31.3843Z" fill="#FFF9D8"/>
<path d="M26.1774 30.4709C26.096 30.5275 26.0146 30.5841 25.9317 30.6392C24.1687 31.798 22.1585 32.58 20.0757 32.8868C12.7202 34.0426 5.61634 29.3433 3.60465 22.1745C2.68539 18.9677 2.86006 15.448 4.10794 12.3544C4.13903 12.277 4.17159 12.201 4.20416 12.125C4.22636 12.0714 4.1938 12.0118 4.13755 12.0029C3.19905 11.8435 2.35233 11.3207 1.78538 10.5402C1.7469 10.4866 1.66548 10.4926 1.63587 10.5507C1.52929 10.7636 1.43308 10.9811 1.3413 11.2016C-0.46316 15.4451 -0.446877 20.4199 1.38867 24.65C4.51058 31.9723 12.4197 36.1577 20.1793 34.7188C22.8053 34.2452 25.3129 33.1489 27.4416 31.5358M34.9999 17.9355C34.9555 8.40134 26.9797 0.51756 17.4971 0.760345C13.6098 0.837797 9.7478 2.26322 6.82869 4.84895C6.82869 4.84895 6.82573 4.85193 6.82425 4.85342C6.75172 4.92491 6.68066 4.9979 6.60961 5.07088C6.56964 5.11259 6.58001 5.17961 6.62886 5.20791C7.06406 5.47155 7.44301 5.82307 7.73462 6.23714C7.73758 6.24161 7.74054 6.24459 7.74202 6.24905C8.19647 5.9318 8.64055 5.60262 9.10536 5.30026C19.0573 -1.03447 32.0393 6.03755 31.9653 17.9355C31.9298 19.7064 31.7581 21.4596 31.1852 23.0682C31.1689 23.1144 31.1926 23.1635 31.2385 23.1799C32.0822 23.4823 32.812 24.0215 33.3479 24.7319C33.3879 24.7856 33.4722 24.7736 33.4989 24.7111C34.3841 22.5558 35.028 20.2814 34.9969 17.934L34.9999 17.9355Z" fill="#FFF9D8"/>
<path d="M16.622 29.0325C16.622 29.0325 16.6191 29.0415 16.6176 29.0474C16.5184 29.04 16.4192 29.0311 16.3186 29.0206C11.1776 28.4993 7.21634 24.5209 6.4762 19.6072C6.48508 19.6042 6.49544 19.5997 6.5058 19.5967C8.54563 18.9205 10.8771 19.0799 12.9021 20.2342C15.9811 21.9888 17.4747 25.6485 16.6205 29.0311L16.622 29.0325Z" fill="#FFF9D8"/>
<path d="M28.4333 16.6418C26.7058 17.1736 24.7962 17.1199 23.0954 16.3514C20.2207 15.054 18.6516 12.8198 18.3407 9.68002C18.246 8.71782 18.3792 7.78392 18.6486 6.86641C18.6486 6.86194 18.6501 6.85896 18.6516 6.85449C18.7596 6.86641 18.8677 6.87981 18.9743 6.89471C19.0276 6.90215 19.0809 6.9096 19.1341 6.91854C19.1608 6.92301 19.1874 6.92748 19.2141 6.93194L19.2407 6.93641C19.2836 6.94386 19.3266 6.95131 19.3695 6.95875C19.4139 6.9662 19.4568 6.97365 19.4998 6.98259C19.5679 6.9945 19.636 7.0094 19.704 7.0228C19.747 7.03174 19.7899 7.04068 19.8343 7.0511C19.8388 7.0511 19.8417 7.0511 19.8462 7.05408C19.8861 7.06302 19.9276 7.07196 19.9675 7.08238C20.0016 7.08983 20.0356 7.09877 20.0697 7.1077C20.1111 7.11664 20.1526 7.12855 20.194 7.13898C20.2355 7.14941 20.2784 7.16132 20.3184 7.17175C20.3272 7.17473 20.3376 7.17771 20.3465 7.1792C20.4042 7.19409 20.462 7.21048 20.5197 7.22835C20.5656 7.24175 20.6115 7.25516 20.6573 7.26857C20.7106 7.28495 20.7639 7.30133 20.8172 7.31921C20.8705 7.33559 20.9238 7.35347 20.9771 7.37283C21.0304 7.3907 21.0822 7.40858 21.1355 7.42794C21.168 7.43986 21.2021 7.45177 21.2347 7.46369C21.2406 7.46518 21.248 7.46816 21.2539 7.47113C21.2761 7.47858 21.2983 7.48752 21.3205 7.49497C21.3679 7.51284 21.4138 7.53071 21.4597 7.54859C21.507 7.56646 21.5544 7.58582 21.6032 7.60519C21.6551 7.62604 21.7054 7.64689 21.7557 7.66923C21.7838 7.68115 21.812 7.69307 21.8401 7.70647C21.8667 7.7169 21.8919 7.72881 21.9185 7.74073C21.9659 7.76158 22.0118 7.78243 22.0592 7.80478C22.1095 7.82712 22.1598 7.85095 22.2087 7.87478C22.259 7.89861 22.3079 7.92244 22.3567 7.94777C22.3982 7.96862 22.4396 7.98947 22.4811 8.01032C22.5921 8.06841 22.7016 8.1265 22.8112 8.18757C22.8526 8.20991 22.8955 8.23523 22.937 8.25907C22.9695 8.27843 23.0021 8.29779 23.0347 8.31567C23.0613 8.33205 23.088 8.34694 23.1146 8.36333C23.1783 8.40205 23.2419 8.44078 23.3056 8.481C23.3692 8.52121 23.4329 8.56143 23.495 8.60313C23.5409 8.63292 23.5853 8.6642 23.6312 8.69399C23.6771 8.72527 23.7215 8.75506 23.7659 8.78634C23.8103 8.81762 23.8547 8.8489 23.8992 8.88167C23.9332 8.90699 23.9673 8.93082 24.0013 8.95763C24.0353 8.98295 24.0694 9.00827 24.1034 9.03359C24.1419 9.06338 24.1819 9.09466 24.2219 9.12445C24.2263 9.12743 24.2293 9.1319 24.2352 9.13488L24.3506 9.22722C24.3906 9.2585 24.4291 9.29127 24.4691 9.32404C24.509 9.35681 24.5475 9.38958 24.586 9.42234C24.6245 9.45511 24.663 9.48788 24.7015 9.52214C24.74 9.55491 24.777 9.58917 24.8155 9.62342C24.8687 9.67109 24.922 9.72024 24.9738 9.76939C24.996 9.79024 25.0182 9.8111 25.039 9.83046C25.113 9.90047 25.1855 9.97196 25.2566 10.0435C25.2921 10.0792 25.3276 10.1149 25.3632 10.1522C25.4342 10.2252 25.5038 10.2982 25.5719 10.3741C25.5911 10.395 25.6118 10.4173 25.6311 10.4382C25.634 10.4411 25.637 10.4456 25.64 10.4486C25.6622 10.4724 25.6829 10.4963 25.7036 10.5201C25.7288 10.5484 25.7539 10.5767 25.7776 10.605C25.7821 10.6095 25.785 10.6139 25.7895 10.6184C25.8176 10.6512 25.8457 10.6839 25.8738 10.7167C25.8961 10.742 25.9168 10.7673 25.9375 10.7927C25.9597 10.818 25.9819 10.8448 26.0026 10.8716C26.0278 10.9029 26.053 10.9327 26.0766 10.9639C26.1048 10.9997 26.1329 11.0354 26.161 11.0712C26.1921 11.1114 26.2232 11.1516 26.2528 11.1918C26.2883 11.238 26.3224 11.2842 26.3564 11.3318C26.3579 11.3348 26.3609 11.3378 26.3623 11.3393C26.3668 11.3453 26.3697 11.3497 26.3742 11.3542C26.3934 11.381 26.4127 11.4078 26.4334 11.4361C26.4674 11.4838 26.5 11.5314 26.5326 11.5791C26.5444 11.597 26.5563 11.6134 26.5681 11.6312C26.577 11.6431 26.5844 11.6566 26.5918 11.6685C26.5962 11.6744 26.6007 11.6804 26.6036 11.6863C26.6599 11.7712 26.7176 11.8561 26.7709 11.9425C26.7709 11.9425 26.7724 11.9455 26.7739 11.947C26.7946 11.9783 26.8138 12.0111 26.8331 12.0423C26.8405 12.0542 26.8479 12.0662 26.8553 12.0781C26.8834 12.1242 26.9115 12.1704 26.9382 12.2151C26.9559 12.2449 26.9722 12.2732 26.99 12.303C26.9959 12.3119 27.0018 12.3223 27.0077 12.3328C27.0403 12.3909 27.0744 12.4475 27.1069 12.507C27.1069 12.5085 27.1084 12.5115 27.1114 12.5145C27.1513 12.5875 27.1913 12.6619 27.2313 12.7364L27.2357 12.7439C27.2564 12.7841 27.2772 12.8243 27.2979 12.8645C27.3186 12.9032 27.3378 12.9449 27.3586 12.9852C27.4977 13.2667 27.625 13.5556 27.7405 13.8505C27.7508 13.8759 27.7612 13.9027 27.7701 13.928C27.7938 13.992 27.8189 14.0561 27.8411 14.1201C27.8707 14.1991 27.8974 14.2795 27.9255 14.3599C27.9403 14.3987 27.9522 14.4389 27.9655 14.4806C27.9758 14.5134 27.9877 14.5461 27.9966 14.5789C28.0025 14.5953 28.0069 14.6132 28.0129 14.631C28.038 14.7144 28.0632 14.7993 28.0883 14.8842C28.1002 14.9289 28.112 14.9721 28.1254 15.0168C28.1372 15.0615 28.149 15.1077 28.1609 15.1538C28.1712 15.197 28.1831 15.2402 28.1934 15.2834C28.2038 15.3281 28.2157 15.3728 28.2245 15.4175C28.2453 15.5068 28.2645 15.5977 28.2837 15.6871C28.2911 15.7228 28.2985 15.7601 28.3059 15.7958C28.3089 15.8107 28.3119 15.8271 28.3148 15.842C28.3296 15.9269 28.3444 16.0103 28.3607 16.0952C28.3607 16.0952 28.3607 16.0952 28.3607 16.0967C28.3755 16.186 28.3903 16.2754 28.4022 16.3663C28.414 16.4556 28.4258 16.5465 28.4362 16.6374L28.4333 16.6418Z" fill="#FFF9D8"/>
<path d="M16.4194 10.5163C15.8273 14.3964 12.8223 17.1951 8.94839 17.3336C8.11204 17.3634 7.2594 17.1698 6.42304 16.9747C6.41268 16.9717 6.40379 16.9702 6.39343 16.9672C6.39787 16.9166 6.40231 16.8644 6.40824 16.8138C6.93521 11.5455 11.0297 7.50458 16.0374 6.87305C16.0404 6.879 16.0419 6.88496 16.0449 6.89092C16.4564 8.05271 16.6029 9.30536 16.4179 10.5163H16.4194Z" fill="#FFF9D8"/>
<path d="M28.445 19.1146C28.3858 19.6836 28.2837 20.2392 28.1401 20.7813C28.1193 20.8573 28.0986 20.9348 28.0779 21.0107C28.0675 21.0494 28.0557 21.0897 28.0438 21.1284C28.0424 21.1358 28.0394 21.1448 28.0364 21.1522C28.0083 21.2461 27.9802 21.3384 27.9491 21.4308C27.9136 21.5365 27.8781 21.6423 27.8396 21.7465C27.8248 21.7867 27.81 21.827 27.7952 21.8672C27.7863 21.8925 27.7759 21.9178 27.7656 21.9431C27.7226 22.0578 27.6753 22.1725 27.6279 22.2842C27.6131 22.32 27.5983 22.3542 27.5835 22.3885C27.548 22.4719 27.5109 22.5538 27.4725 22.6357C27.3733 22.8472 27.2697 23.0573 27.1586 23.2613C27.132 23.309 27.1054 23.3566 27.0802 23.4043C27.0461 23.4654 27.0121 23.5235 26.9766 23.583C26.8952 23.7245 26.8093 23.8631 26.7205 24.0001C26.6701 24.079 26.6183 24.1565 26.5665 24.2339C26.5399 24.2727 26.5118 24.3129 26.4836 24.3531C26.4525 24.3963 26.4229 24.4395 26.3919 24.4827C26.1284 24.8476 25.8442 25.1947 25.5392 25.5238C25.5111 25.5551 25.483 25.5849 25.4534 25.6162C25.4164 25.6549 25.3793 25.6936 25.3423 25.7324C25.3009 25.7755 25.2594 25.8173 25.218 25.859C25.1839 25.8932 25.1499 25.9275 25.1144 25.9602C25.067 26.0064 25.0182 26.0526 24.9693 26.0973C24.9397 26.1256 24.9101 26.1524 24.8805 26.1807C24.842 26.2164 24.802 26.2522 24.7606 26.2879C24.7206 26.3237 24.6807 26.3579 24.6392 26.3937C24.5992 26.4294 24.5578 26.4637 24.5163 26.4979C24.432 26.5694 24.3446 26.6409 24.2573 26.7094C24.2188 26.7407 24.1803 26.7705 24.1404 26.8003C24.0974 26.8331 24.056 26.8658 24.0116 26.8971C23.9686 26.9284 23.9257 26.9612 23.8828 26.9924C23.8399 27.0237 23.7954 27.055 23.7525 27.0848C23.6652 27.1459 23.5764 27.2069 23.4861 27.265C23.4417 27.2948 23.3958 27.3231 23.3514 27.3529C23.3055 27.3812 23.2611 27.4095 23.2152 27.4378C23.1648 27.4691 23.113 27.5004 23.0627 27.5301C23.0257 27.5525 22.9902 27.5733 22.9532 27.5942C22.6438 27.7729 22.327 27.9383 22.0013 28.0857C21.9658 28.1021 21.9288 28.1185 21.8933 28.1349C21.8459 28.1557 21.7986 28.1766 21.7497 28.1974C21.5972 28.263 21.4433 28.324 21.2864 28.3821C21.242 28.3985 21.1976 28.4149 21.1531 28.4313C21.0525 28.467 20.9518 28.5013 20.8512 28.5355C20.6306 28.6085 20.4071 28.6726 20.1806 28.7322C20.148 28.7411 20.114 28.7485 20.0814 28.7575C19.7158 28.8483 19.3457 28.9198 18.9697 28.972C18.9697 28.9675 18.9668 28.9645 18.9653 28.9586C18.6278 27.8191 18.539 26.5962 18.7373 25.3883C19.3857 21.4203 22.8614 18.6827 26.6687 18.8257C27.2623 18.848 27.8559 18.9701 28.4435 19.1146H28.445Z" fill="#FFF9D8"/>
<path d="M6.4247 16.9744C6.86878 11.7433 10.9085 7.54301 16.0465 6.89062C16.458 8.05241 16.6046 9.30506 16.4195 10.516C15.8274 14.3961 12.8225 17.1948 8.94857 17.3333C8.11222 17.3631 7.25958 17.1695 6.42322 16.9744H6.4247Z" fill="#FFF9D8"/>
<path d="M16.6221 29.034C11.45 28.6512 7.26523 24.6892 6.50732 19.5997C8.54715 18.9234 10.8786 19.0828 12.9036 20.2372C15.9826 21.9918 17.4762 25.6514 16.6221 29.034Z" fill="#FFF9D8"/>
<path d="M18.3408 9.68276C18.2461 8.72056 18.3793 7.78666 18.6487 6.86914C21.9483 7.2281 24.8126 9.04824 26.5904 11.6712C26.5949 11.6772 26.5993 11.6831 26.6038 11.6891C26.66 11.774 26.7177 11.8589 26.771 11.9453C26.771 11.9453 26.7725 11.9482 26.774 11.9497C26.7932 11.981 26.8139 12.0138 26.8332 12.0451C26.8406 12.057 26.848 12.0689 26.8554 12.0808C26.8835 12.127 26.9116 12.1732 26.9383 12.2178C26.9561 12.2476 26.9723 12.2759 26.9901 12.3057C26.996 12.3147 27.0019 12.3251 27.0079 12.3355C27.0404 12.3936 27.0745 12.4502 27.107 12.5098C27.107 12.5113 27.1085 12.5142 27.1115 12.5172C27.1515 12.5902 27.1914 12.6647 27.2314 12.7392L27.2358 12.7466C27.2566 12.7868 27.2773 12.827 27.298 12.8673C27.3187 12.906 27.338 12.9477 27.3587 12.9879C27.4978 13.2694 27.6251 13.5584 27.7406 13.8533C27.751 13.8786 27.7613 13.9054 27.7702 13.9307C27.7939 13.9948 27.8191 14.0588 27.8413 14.1229C27.8709 14.2018 27.8975 14.2823 27.9256 14.3627C27.9404 14.4014 27.9523 14.4416 27.9656 14.4833C27.976 14.5161 27.9878 14.5489 27.9967 14.5816C28.0026 14.598 28.0071 14.6159 28.013 14.6338C28.0381 14.7172 28.0633 14.8021 28.0885 14.887C28.1003 14.9317 28.1122 14.9749 28.1255 15.0195C28.1373 15.0642 28.1492 15.1104 28.161 15.1566C28.1714 15.1998 28.1832 15.243 28.1936 15.2862C28.2039 15.3308 28.2158 15.3755 28.2247 15.4202C28.2454 15.5096 28.2646 15.6004 28.2839 15.6898C28.2913 15.7256 28.2987 15.7628 28.3061 15.7985C28.309 15.8134 28.312 15.8298 28.315 15.8447C28.3298 15.9296 28.3446 16.013 28.3608 16.0979C28.3608 16.0979 28.3608 16.0979 28.3608 16.0994C28.3756 16.1888 28.389 16.2781 28.4023 16.369C28.4141 16.4584 28.426 16.5492 28.4363 16.6401C26.7088 17.1718 24.7993 17.1182 23.0984 16.3496C20.2237 15.0523 18.6547 12.8181 18.3438 9.67829L18.3408 9.68276Z" fill="#FFF9D8"/>
<path d="M28.4453 19.1146C28.386 19.6836 28.2839 20.2392 28.1403 20.7813C28.1196 20.8573 28.0989 20.9348 28.0782 21.0107C28.0678 21.0494 28.0559 21.0897 28.0441 21.1284C28.0426 21.1358 28.0397 21.1448 28.0367 21.1522C28.0086 21.2461 27.9805 21.3384 27.9494 21.4308C27.9138 21.5365 27.8783 21.6423 27.8398 21.7465C27.825 21.7867 27.8102 21.827 27.7954 21.8672C27.7865 21.8925 27.7762 21.9178 27.7658 21.9431C27.7229 22.0578 27.6755 22.1725 27.6281 22.2842C27.6133 22.32 27.5985 22.3542 27.5837 22.3885C27.5482 22.4719 27.5112 22.5538 27.4727 22.6357C27.3735 22.8472 27.2699 23.0573 27.1589 23.2613C27.1323 23.309 27.1056 23.3566 27.0804 23.4043C27.0464 23.4654 27.0124 23.525 26.9768 23.583C25.2967 26.4458 22.3791 28.4864 18.9641 28.9586C18.6266 27.8191 18.5378 26.5962 18.7361 25.3883C19.3845 21.4203 22.8602 18.6827 26.6674 18.8257C27.261 18.848 27.8546 18.9701 28.4423 19.1146" fill="#FFF9D8"/>
</svg>
